<?xml version="1.0" encoding="UTF-8" standalone="no"?>
<!-- Created with Inkscape (http://www.inkscape.org/) -->

<svg
   xmlns:dc="http://purl.org/dc/elements/1.1/"
   xmlns:cc="http://creativecommons.org/ns#"
   xmlns:rdf="http://www.w3.org/1999/02/22-rdf-syntax-ns#"
   xmlns:svg="http://www.w3.org/2000/svg"
   xmlns="http://www.w3.org/2000/svg"
   xmlns:sodipodi="http://sodipodi.sourceforge.net/DTD/sodipodi-0.dtd"
   xmlns:inkscape="http://www.inkscape.org/namespaces/inkscape"
   version="1.1"
   id="svg2"
   xml:space="preserve"
   width="666.66669"
   height="666.66669"
   viewBox="0 0 666.66669 666.66669"
   sodipodi:docname="114589-OP0UGW-595.eps"
   inkscape:version="0.92.3 (2405546, 2018-03-11)"
   inkscape:export-filename="/home/terislos/.cache/.fr-iVBCuY/114589-OP0UGW-595.eps.png"
   inkscape:export-xdpi="96"
   inkscape:export-ydpi="96"><metadata
     id="metadata8"><rdf:RDF><cc:Work
         rdf:about=""><dc:format>image/svg+xml</dc:format><dc:type
           rdf:resource="http://purl.org/dc/dcmitype/StillImage" /><dc:title></dc:title></cc:Work></rdf:RDF></metadata><defs
     id="defs6" /><sodipodi:namedview
     pagecolor="#ffffff"
     bordercolor="#666666"
     borderopacity="1"
     objecttolerance="10"
     gridtolerance="10"
     guidetolerance="10"
     inkscape:pageopacity="0"
     inkscape:pageshadow="2"
     inkscape:window-width="1366"
     inkscape:window-height="768"
     id="namedview4"
     showgrid="false"
     inkscape:snap-center="true"
     inkscape:zoom="0.59527292"
     inkscape:cx="321.06477"
     inkscape:cy="172.42392"
     inkscape:window-x="0"
     inkscape:window-y="0"
     inkscape:window-maximized="1"
     inkscape:current-layer="g10" /><g
     id="g10"
     inkscape:groupmode="layer"
     inkscape:label="ink_ext_XXXXXX"
     transform="matrix(1.3333333,0,0,-1.3333333,0,666.66667)"><text
       xml:space="preserve"
       style="font-style:normal;font-weight:normal;font-size:30px;line-height:1.25;font-family:sans-serif;letter-spacing:0px;word-spacing:0px;fill:#000000;fill-opacity:1;stroke:none;stroke-width:0.75"
       x="-507.85849"
       y="-404.48907"
       id="text663"
       transform="scale(1,-1)"><tspan
         sodipodi:role="line"
         id="tspan661"
         x="-507.85849"
         y="-377.94611"
         style="font-style:italic;font-variant:normal;font-weight:bold;font-stretch:normal;font-size:28px;font-family:sans-serif;-inkscape-font-specification:'sans-serif Bold Italic';fill:#00ffff;stroke-width:0.75" /></text>
<flowRoot
       xml:space="preserve"
       id="flowRoot677"
       style="fill:black;fill-opacity:1;stroke:none;font-family:sans-serif;font-style:normal;font-weight:normal;font-size:40px;line-height:1.25;letter-spacing:0px;word-spacing:0px"><flowRegion
         id="flowRegion679"><rect
           id="rect681"
           width="757.0437"
           height="267.6619"
           x="-475.39948"
           y="-44.43507" /></flowRegion><flowPara
         id="flowPara683"></flowPara></flowRoot><g
       id="g5321"><g
         transform="matrix(0.8619707,0,0,0.67240092,1386.5523,44.476733)"
         id="g5097"><g
           id="g4989"
           transform="translate(-35.277937,12.599263)"><g
             transform="matrix(0.14161675,0,0,0.16306394,-1637.7304,-121.92619)"
             id="g12"><path
               inkscape:connector-curvature="0"
               id="path16"
               style="fill:#c5d4d2;fill-opacity:1;fill-rule:nonzero;stroke:none"
               d="m 4432.34,2968.89 c 0,-39.89 -225.42,-72.22 -503.5,-72.22 -278.07,0 -503.5,32.33 -503.5,72.22 0,39.89 225.43,72.23 503.5,72.23 278.08,0 503.5,-32.34 503.5,-72.23" /><path
               inkscape:connector-curvature="0"
               id="path18"
               style="fill:#c5d4d2;fill-opacity:1;fill-rule:nonzero;stroke:none"
               d="m 1632.34,2968.85 c 0,-39.89 -225.42,-72.22 -503.5,-72.22 -278.074,0 -503.5,32.33 -503.5,72.22 0,39.89 225.426,72.23 503.5,72.23 278.08,0 503.5,-32.34 503.5,-72.23" /><path
               inkscape:connector-curvature="0"
               id="path20"
               style="fill:#c5d4d2;fill-opacity:1;fill-rule:nonzero;stroke:none"
               d="m 1592.34,348.832 c 0,-39.891 -225.42,-72.23 -503.5,-72.23 -278.074,0 -503.5,32.339 -503.5,72.23 0,39.887 225.426,72.227 503.5,72.227 278.08,0 503.5,-32.34 503.5,-72.227" /><path
               inkscape:connector-curvature="0"
               id="path22"
               style="fill:#c5d4d2;fill-opacity:1;fill-rule:nonzero;stroke:none"
               d="m 3002.34,348.91 c 0,-39.89 -225.42,-72.219 -503.5,-72.219 -278.07,0 -503.5,32.329 -503.5,72.219 0,39.891 225.43,72.231 503.5,72.231 278.08,0 503.5,-32.34 503.5,-72.231" /><path
               inkscape:connector-curvature="0"
               id="path24"
               style="fill:#c5d4d2;fill-opacity:1;fill-rule:nonzero;stroke:none"
               d="m 4432.34,348.91 c 0,-39.89 -225.42,-72.219 -503.5,-72.219 -278.07,0 -503.5,32.329 -503.5,72.219 0,39.891 225.43,72.231 503.5,72.231 278.08,0 503.5,-32.34 503.5,-72.231" /><path
               inkscape:connector-curvature="0"
               id="path26"
               style="fill:#c5d4d2;fill-opacity:1;fill-rule:nonzero;stroke:none"
               d="m 3002.34,2968.89 c 0,-39.89 -225.42,-72.22 -503.5,-72.22 -278.07,0 -503.5,32.33 -503.5,72.22 0,39.89 225.43,72.23 503.5,72.23 278.08,0 503.5,-32.34 503.5,-72.23" /><path
               inkscape:connector-curvature="0"
               id="path28"
               style="fill:#a1b8b8;fill-opacity:1;fill-rule:nonzero;stroke:none"
               d="m 860.863,582.449 c -0.234,0.063 0.047,0.051 -2.363,0.793 -1,0.317 -2.238,0.727 -3.715,1.207 -1.105,0.422 -2.383,0.891 -3.836,1.442 -5.594,2.179 -13.265,5.339 -22.261,9.769 -18.129,8.781 -42.305,22.469 -68.325,42.309 -26.058,19.66 -53.636,45.82 -78.105,77.16 -11.957,15.883 -23.684,32.562 -33.512,50.582 -10.238,17.738 -18.711,36.59 -26.246,55.469 -7.094,19.101 -13.227,38.289 -17.59,57.402 -4.57,19.047 -7.719,37.898 -9.781,56.066 -2.285,18.153 -2.91,35.692 -3.602,52.141 0.25,16.541 -0.105,31.981 1.149,46.201 0.453,7.08 0.887,13.86 1.301,20.3 0.734,6.41 1.425,12.49 2.082,18.2 1.226,11.39 2.472,21.24 3.984,29.32 2.68,16.1 4.211,25.3 4.211,25.3 0,0 0.812,-9.27 2.23,-25.49 0.539,-8.07 1.789,-17.85 3.414,-28.99 0.774,-5.55 1.594,-11.46 2.461,-17.68 1.176,-6.17 2.414,-12.64 3.704,-19.41 2.222,-13.51 6.304,-27.82 9.91,-42.868 4.535,-14.883 9.136,-30.442 15.3,-45.934 5.946,-15.519 12.903,-31.109 20.93,-46.187 7.836,-15.172 17.074,-29.672 26.707,-43.52 10.063,-13.601 20.485,-26.621 31.914,-38.14 11.043,-11.821 23.231,-21.942 34.969,-31.301 24.035,-18.238 48.375,-31.469 69.902,-40.231 21.45,-8.871 39.942,-13.558 52.164,-15.828 6.164,-1.211 10.688,-1.679 13.403,-1.91 0.64,-0.039 1.203,-0.07 1.687,-0.09 0.399,0 0.207,0.149 0.321,0.18 -0.247,0.18 1.171,-0.063 0.929,-0.012 l -33.336,-146.25" /><path
               inkscape:connector-curvature="0"
               id="path30"
               style="fill:#748588;fill-opacity:1;fill-rule:nonzero;stroke:none"
               d="m 1080.48,1150.55 c 330.28,18.89 264,-253.57 264,-253.57 v -535 l -417.753,-3.039 c -213.715,0 -186.594,65.18 -186.594,197.719 0,179.719 10.062,575 340.347,593.89" /><path
               inkscape:connector-curvature="0"
               id="path32"
               style="fill:#a1b8b8;fill-opacity:1;fill-rule:nonzero;stroke:none"
               d="m 1043.43,1430 c 4.3,0 8.56,-0.15 12.82,-0.28 2.88,0.12 5.75,0.28 8.63,0.28 h -21.45" /><path
               inkscape:connector-curvature="0"
               id="path34"
               style="fill:#a1b8b8;fill-opacity:1;fill-rule:nonzero;stroke:none"
               d="M 1055.63,1431.6 C 913.832,1425.7 780,1276.02 780,1134.2 V 360 H 880 V 805.621 C 880,923.84 976.559,1020 1094.77,1020 h -0.36 C 1212.63,1020 1310,923.84 1310,805.621 V 360 h 100 v 727.12 c 0,197.94 -157.7,338.59 -354.37,344.48" /><path
               inkscape:connector-curvature="0"
               id="path36"
               style="fill:#d7e1df;fill-opacity:1;fill-rule:nonzero;stroke:none"
               d="M 955.77,1581.9 C 913.23,1382.01 780.078,1240.96 658.371,1266.87 536.66,1292.77 472.48,1475.81 515.02,1675.71 c 42.539,199.89 175.691,340.93 297.402,315.03 121.711,-25.9 185.891,-208.94 143.348,-408.84" /><path
               inkscape:connector-curvature="0"
               id="path38"
               style="fill:#d7e1df;fill-opacity:1;fill-rule:nonzero;stroke:none"
               d="m 1228.7,1581.9 c 42.54,-199.89 175.69,-340.94 297.4,-315.03 121.71,25.9 185.89,208.94 143.35,408.84 -42.54,199.89 -175.69,340.93 -297.4,315.03 -121.71,-25.9 -185.89,-208.94 -143.35,-408.84" /><path
               inkscape:connector-curvature="0"
               id="path40"
               style="fill:#b3c6c5;fill-opacity:1;fill-rule:nonzero;stroke:none"
               d="m 700,1652.76 c 0,-91.26 96.156,-203.17 159.828,-297.74 75.52,-112.16 131.195,-199.94 251.052,-199.94 138.08,0 209.94,121.38 276.73,257.44 40.07,81.64 112.39,165.43 112.39,240.24 v 32.25 c 0,199.48 -179.26,322.5 -400,322.5 v 0 c -220.746,0 -400,-123.02 -400,-322.5 v -32.25" /><path
               inkscape:connector-curvature="0"
               id="path42"
               style="fill:#f68aa5;fill-opacity:1;fill-rule:nonzero;stroke:none"
               d="m 1178.01,1375.13 -1.81,-202.63 c -0.85,-37.24 -30.01,-66.7 -65.13,-65.8 l -1.86,0.05 c -35.12,0.91 -62.89,31.83 -62.04,69.08 l 1.74,199.3 h 129.1" /><path
               inkscape:connector-curvature="0"
               id="path44"
               style="fill:#ffffff;fill-opacity:1;fill-rule:nonzero;stroke:none"
               d="m 1278.96,1360.04 c 0,-75.22 -79.82,-136.2 -178.28,-136.2 -98.47,0 -178.285,60.98 -178.285,136.2 0,75.22 79.815,136.2 178.285,136.2 98.46,0 178.28,-60.98 178.28,-136.2" /><path
               inkscape:connector-curvature="0"
               id="path46"
               style="fill:#111b18;fill-opacity:1;fill-rule:nonzero;stroke:none"
               d="m 1100,1411.36 v 0.06 c 0,0 4.47,-0.03 5,-0.03 0.53,0 -5,0.03 5,0.03 v -0.06 c 50,-1.16 89.31,-31.14 59.7,-82.03 -54.55,-93.8 -102.25,-46.79 -136.51,0 -33.647,45.95 6.81,80.87 66.81,82.03" /><path
               inkscape:connector-curvature="0"
               id="path48"
               style="fill:#111b18;fill-opacity:1;fill-rule:nonzero;stroke:none"
               d="m 968.52,1609.96 c 0,-35.32 -17.825,-63.96 -39.809,-63.96 -21.988,0 -39.809,28.64 -39.809,63.96 0,35.32 17.821,63.95 39.809,63.95 21.984,0 39.809,-28.63 39.809,-63.95" /><path
               inkscape:connector-curvature="0"
               id="path50"
               style="fill:#111b18;fill-opacity:1;fill-rule:nonzero;stroke:none"
               d="m 1318.52,1609.96 c 0,-35.32 -17.82,-63.96 -39.81,-63.96 -21.99,0 -39.81,28.64 -39.81,63.96 0,35.32 17.82,63.95 39.81,63.95 21.99,0 39.81,-28.63 39.81,-63.95" /><path
               inkscape:connector-curvature="0"
               id="path52"
               style="fill:#d7e1df;fill-opacity:1;fill-rule:nonzero;stroke:none"
               d="m 1442.37,2018.95 c 0,-127.95 -156.87,-231.67 -350.38,-231.67 -193.513,0 -350.385,103.72 -350.385,231.67 0,127.95 156.872,231.67 350.385,231.67 193.51,0 350.38,-103.72 350.38,-231.67" /><path
               inkscape:connector-curvature="0"
               id="path54"
               style="fill:#d7e1df;fill-opacity:1;fill-rule:nonzero;stroke:none"
               d="m 1273.03,344.91 h 191.89 c 28.41,26.02 46.33,63.289 46.33,104.852 0,78.578 -63.7,142.277 -142.28,142.277 -78.58,0 -142.28,-63.699 -142.28,-142.277 0,-41.563 17.93,-78.832 46.34,-104.852" /><path
               inkscape:connector-curvature="0"
               id="path56"
               style="fill:#d7e1df;fill-opacity:1;fill-rule:nonzero;stroke:none"
               d="m 738.027,344.91 h 191.891 c 28.41,26.02 46.336,63.289 46.336,104.852 0,78.578 -63.703,142.277 -142.281,142.277 -78.578,0 -142.282,-63.699 -142.282,-142.277 0,-41.563 17.926,-78.832 46.336,-104.852" /><path
               inkscape:connector-curvature="0"
               id="path58"
               style="fill:#748588;fill-opacity:1;fill-rule:nonzero;stroke:none"
               d="m 525.152,1063.26 c 0,48.73 39.496,88.23 88.219,88.23 48.723,0 88.223,-39.5 88.223,-88.23 0,-48.72 -39.5,-88.221 -88.223,-88.221 -48.723,0 -88.219,39.501 -88.219,88.221" /><path
               inkscape:connector-curvature="0"
               id="path60"
               style="fill:#cc6924;fill-opacity:1;fill-rule:nonzero;stroke:none"
               d="m 4161.01,616.469 c -0.17,-0.098 0.83,0.453 0.89,0.351 0.13,0.012 0.29,0.02 0.49,0.039 0.43,0.18 0.92,0.383 1.49,0.621 2.27,0.969 6.01,2.739 10.87,5.352 9.73,5.148 23.95,13.648 40.22,25.598 16.27,11.941 34.45,27.468 52.13,46.242 8.69,9.469 17.54,19.598 25.62,30.598 8.27,10.91 15.92,22.609 23,34.789 6.89,12.242 13.51,24.89 18.79,37.933 2.88,6.457 5.34,13.028 7.59,19.617 2.5,6.539 4.4,13.172 6.29,19.743 2.09,6.55 3.56,13.117 5.02,19.597 1.62,6.461 2.84,12.871 3.79,19.172 2.44,12.57 3.33,24.668 4.57,35.949 0.36,11.231 1.45,21.75 1.06,30.989 -0.2,9.261 0.07,17.5 -0.59,24.16 -0.93,13.472 -1.46,21.172 -1.46,21.172 0,0 2.67,-7.27 7.36,-20.012 2.56,-6.367 4.6,-14.34 7.48,-23.488 3.06,-9.121 5.02,-19.719 7.97,-31.301 2.08,-11.668 4.77,-24.442 6.08,-38.192 0.91,-6.867 1.6,-13.968 1.89,-21.269 0.46,-7.309 0.92,-14.82 0.76,-22.469 0.04,-7.672 0.06,-15.519 -0.56,-23.43 -0.36,-7.96 -0.95,-16.031 -2.02,-24.128 -1.67,-16.313 -4.87,-32.75 -8.7,-49.192 -4,-16.371 -8.92,-32.66 -14.84,-48.351 -5.74,-15.809 -12.62,-30.899 -19.75,-45.379 -14.52,-28.801 -31.1,-54.371 -46.95,-75.25 -15.84,-20.93 -30.81,-37.34 -42.22,-48.649 -5.67,-5.679 -10.47,-10.09 -14.07,-13.242 -0.91,-0.789 -1.72,-1.48 -2.41,-2.09 -0.94,-0.738 -1.74,-1.379 -2.37,-1.879 -1.48,-1.14 -1.3,-1.09 -1.47,-1.199 l -75.95,117.598" /><path
               inkscape:connector-curvature="0"
               id="path62"
               style="fill:#673517;fill-opacity:1;fill-rule:nonzero;stroke:none"
               d="M 3975.6,1099.39 C 3695.19,1117.3 3751.46,859 3751.46,859 V 351.801 l 354.67,-2.891 c 181.44,0 217.13,59.36 217.13,185.02 0,170.371 -67.26,547.55 -347.66,565.46" /><path
               inkscape:connector-curvature="0"
               id="path64"
               style="fill:#914d1d;fill-opacity:1;fill-rule:nonzero;stroke:none"
               d="m 3787.85,395.602 c 0.24,2.457 0.39,5.117 0.39,8.136 v 529 c 3.62,63.313 55.3,113.552 118.71,113.552 65.48,0 118.56,-53.552 119.02,-119.759 V 507.5 c 0,-45.59 0.59,-82.41 1.72,-111.898 h 214.4 v 722.278 c 0,154.03 -147.94,316.88 -302.27,316.88 h 22.84 c -215.69,0 -390.54,-174.52 -390.54,-389.79 V 395.602 h 215.73" /><path
               inkscape:connector-curvature="0"
               id="path66"
               style="fill:#ce7d43;fill-opacity:1;fill-rule:nonzero;stroke:none"
               d="m 3761.08,346.891 c 16.39,0 28.45,15.761 23.66,31.398 -14.89,48.691 -59.69,84.07 -112.65,84.07 -52.97,0 -97.77,-35.379 -112.67,-84.07 -4.78,-15.637 7.28,-31.398 23.66,-31.398 h 178" /><path
               inkscape:connector-curvature="0"
               id="path68"
               style="fill:#ce7d43;fill-opacity:1;fill-rule:nonzero;stroke:none"
               d="m 4235.11,346.891 c 11.55,0 20,10.711 17.53,21.968 -11.71,53.493 -58.8,93.5 -115.12,93.5 -56.34,0 -103.43,-40.007 -115.14,-93.5 -2.46,-11.257 5.98,-21.968 17.54,-21.968 h 195.19" /><path
               inkscape:connector-curvature="0"
               id="path70"
               style="fill:#ce7d43;fill-opacity:1;fill-rule:nonzero;stroke:none"
               d="m 4078.57,1327.08 h -339.16 c -110,0 -200,90 -200,200 v 359.17 c 0,110 90,200 200,200 h 339.16 c 110,0 200,-90 200,-200 v -359.17 c 0,-110 -90,-200 -200,-200" /><path
               inkscape:connector-curvature="0"
               id="path72"
               style="fill:#f68aa5;fill-opacity:1;fill-rule:nonzero;stroke:none"
               d="m 3818.52,1405.9 2.17,-170.57 c 1.02,-42.73 36.05,-76.52 78.23,-75.49 l 2.24,0.06 c 42.18,1.04 75.53,36.51 74.51,79.25 l -2.08,166.75 h -155.07" /><path
               inkscape:connector-curvature="0"
               id="path74"
               style="fill:#111b18;fill-opacity:1;fill-rule:nonzero;stroke:none"
               d="m 4048.28,1772.01 c 0,-26.27 13.26,-47.56 29.6,-47.56 16.35,0 29.61,21.29 29.61,47.56 0,26.26 -13.26,47.55 -29.61,47.55 -16.34,0 -29.6,-21.29 -29.6,-47.55" /><path
               inkscape:connector-curvature="0"
               id="path76"
               style="fill:#111b18;fill-opacity:1;fill-rule:nonzero;stroke:none"
               d="m 3709.46,1764.49 c 0,-26.26 13.25,-47.55 29.6,-47.55 16.35,0 29.6,21.29 29.6,47.55 0,26.26 -13.25,47.55 -29.6,47.55 -16.35,0 -29.6,-21.29 -29.6,-47.55" /><path
               inkscape:connector-curvature="0"
               id="path78"
               style="fill:#914d1d;fill-opacity:1;fill-rule:nonzero;stroke:none"
               d="m 3674.79,2075.47 c 0,0 -29.51,8.37 -147.65,-98.55 C 3408.99,1870 3359.19,1779.96 3345.48,1650.93 l -5.91,-55.64 c -7.67,-72.27 36.48,-139.41 105.13,-159.86 v 0 c 54.21,-16.15 113.02,0.25 151.83,42.33 l 25.32,27.47 c 38.2,41.44 50.57,100.79 32.06,153.88 l -32.17,92.27 c -24.61,70.62 -25.2,147.72 -1.67,219.11 l 54.72,104.98" /><path
               inkscape:connector-curvature="0"
               id="path80"
               style="fill:#fcd7c3;fill-opacity:1;fill-rule:nonzero;stroke:none"
               d="m 4122.19,1540.43 -80.08,92.88 c -46.58,53.96 -72.11,82.88 -72.11,154.17 V 2090 h -110 v -302.52 c 0,-71.29 -27.74,-100.21 -74.32,-154.17 l -79.1,-92.88 c -17.84,-20.67 -26.58,-47.06 -26.58,-74.36 v -58.95 c 0,-62.84 48.82,-114.26 111.66,-114.26 40.95,0 77.43,27.14 97.64,57.14 h 47.69 c 20.21,-30 58.14,-57.14 99.09,-57.14 62.84,0 113.92,51.42 113.92,114.26 v 58.95 c 0,27.3 -9.97,53.69 -27.81,74.36" /><path
               inkscape:connector-curvature="0"
               id="path82"
               style="fill:#914d1d;fill-opacity:1;fill-rule:nonzero;stroke:none"
               d="m 4152.88,2071.8 c 0,0 66.26,-20.51 161.46,-106.8 97.45,-88.33 145.83,-198.42 156.39,-327.74 l 4.56,-55.78 c 5.92,-72.42 -39.86,-138.47 -108.98,-157.25 v 0 c -54.59,-14.83 -112.99,2.99 -150.75,46.01 l -24.66,28.08 c -37.18,42.35 -48.09,101.98 -28.3,154.61 l 34.39,91.47 c 26.33,69.99 28.79,147.06 7,219 l -51.11,108.4" /><path
               inkscape:connector-curvature="0"
               id="path84"
               style="fill:#111b18;fill-opacity:1;fill-rule:nonzero;stroke:none"
               d="m 3910,1608.11 v 0.07 c 0,0 4.34,-0.03 5,-0.03 0.66,0 -5,0.03 5,0.03 v -0.07 c 60,-1.44 112.45,-38.78 75.59,-102.15 -67.93,-116.79 -126.72,-58.26 -169.39,0 -41.9,57.23 13.8,100.71 83.8,102.15" /><path
               inkscape:connector-curvature="0"
               id="path86"
               style="fill:#914d1d;fill-opacity:1;fill-rule:nonzero;stroke:none"
               d="m 865.82,3124.3 c 0,0 -215.05,-44.3 -301.015,205.7 h 54.039 c 0,0 -68.074,110 -54.039,280 h 54.039 c 0,0 -56.121,161.4 65.269,308.2 0,0 91.719,-138.2 113.227,-258.2 H 938.844 L 865.82,3124.3" /><path
               inkscape:connector-curvature="0"
               id="path88"
               style="fill:#4a2213;fill-opacity:1;fill-rule:nonzero;stroke:none"
               d="m 1121.11,3760.59 c 295.76,18.89 236.41,-253.56 236.41,-253.56 v -535 l -374.094,-3.04 c -191.379,0 -229.031,62.6 -229.031,195.15 0,179.71 70.949,577.57 366.715,596.45" /><path
               inkscape:connector-curvature="0"
               id="path90"
               style="fill:#673517;fill-opacity:1;fill-rule:nonzero;stroke:none"
               d="m 1040.43,2968.99 c 0.23,2.31 0.37,4.81 0.37,7.65 v 536.58 c 3.4,59.47 51.95,106.67 111.51,106.67 61.52,0 111.38,-50.3 111.81,-112.5 V 3074.1 c 0,-42.82 0.55,-77.41 1.61,-105.11 h 201.41 v 775.25 c 0,144.7 -138.98,297.69 -283.95,297.69 h 21.46 c -202.62,0 -366.873,-142.53 -366.873,-344.76 v -728.18 h 202.653" /><path
               inkscape:connector-curvature="0"
               id="path92"
               style="fill:#914d1d;fill-opacity:1;fill-rule:nonzero;stroke:none"
               d="m 1019.53,2966.85 c 17.28,0 30,16.63 24.96,33.12 -15.71,51.37 -62.963,88.68 -118.83,88.68 -55.871,0 -103.121,-37.31 -118.832,-88.68 -5.047,-16.49 7.672,-33.12 24.953,-33.12 h 187.749" /><path
               inkscape:connector-curvature="0"
               id="path94"
               style="fill:#914d1d;fill-opacity:1;fill-rule:nonzero;stroke:none"
               d="m 1487.52,2966.85 c 12.19,0 21.1,11.29 18.5,23.18 -12.36,56.42 -62.02,98.62 -121.44,98.62 -59.41,0 -109.08,-42.2 -121.44,-98.62 -2.6,-11.89 6.31,-23.18 18.5,-23.18 h 205.88" /><path
               inkscape:connector-curvature="0"
               id="path96"
               style="fill:#673517;fill-opacity:1;fill-rule:nonzero;stroke:none"
               d="M 1385.5,3875.88 H 943.102 L 753.09,4482.92 c 0,119.42 97.703,217.12 217.113,217.12 H 1338.4 c 119.41,0 217.12,-97.7 217.12,-217.12 L 1385.5,3875.88" /><path
               inkscape:connector-curvature="0"
               id="path98"
               style="fill:#111b18;fill-opacity:1;fill-rule:nonzero;stroke:none"
               d="m 1301.94,4358.89 c 0,-28.51 14.39,-51.62 32.13,-51.62 17.75,0 32.14,23.11 32.14,51.62 0,28.52 -14.39,51.63 -32.14,51.63 -17.74,0 -32.13,-23.11 -32.13,-51.63" /><path
               inkscape:connector-curvature="0"
               id="path100"
               style="fill:#f68aa5;fill-opacity:1;fill-rule:nonzero;stroke:none"
               d="m 1076.94,3989.58 2.18,-90.56 c 1.01,-42.73 36.05,-76.52 78.22,-75.49 l 2.25,0.06 c 42.18,1.04 75.53,36.51 74.51,79.25 l -2.09,86.74 h -155.07" /><path
               inkscape:connector-curvature="0"
               id="path102"
               style="fill:#111b18;fill-opacity:1;fill-rule:nonzero;stroke:none"
               d="m 934.121,4350.73 c 0,-28.51 14.387,-51.62 32.133,-51.62 17.75,0 32.133,23.11 32.133,51.62 0,28.52 -14.383,51.63 -32.133,51.63 -17.746,0 -32.133,-23.11 -32.133,-51.63" /><path
               inkscape:connector-curvature="0"
               id="path104"
               style="fill:#914d1d;fill-opacity:1;fill-rule:nonzero;stroke:none"
               d="m 1380.99,4107.49 -85.4,102.98 c -50.57,58.59 -227.37,58.59 -277.94,0 l -87.33,-101.9 C 910.953,4086.13 900,4056.41 900,4026.77 v -63.99 c 0,-68.23 54.063,-124.43 122.29,-124.43 44.45,0 85.12,91.65 107.06,121.65 h 51.76 c 21.95,-30 61.94,-121.65 106.4,-121.65 68.22,0 122.49,56.2 122.49,124.43 v 63.99 c 0,29.64 -9.65,58.29 -29.01,80.72" /><path
               inkscape:connector-curvature="0"
               id="path106"
               style="fill:#4a2213;fill-opacity:1;fill-rule:nonzero;stroke:none"
               d="m 1150,4180.97 v 0.07 c 0,0 4.28,-0.02 5,-0.03 0.72,0.01 -5,0.03 5,0.03 v -0.07 c 70,-1.57 123.41,-42.1 83.39,-110.9 -73.74,-126.78 -137.8,-63.24 -184.12,0 -45.49,62.13 10.73,109.33 90.73,110.9" /><path
               inkscape:connector-curvature="0"
               id="path108"
               style="fill:#4a2213;fill-opacity:1;fill-rule:nonzero;stroke:none"
               d="M 913.031,4689.54 766.145,4617.6 C 695.988,4583.23 652.574,4510.86 655.297,4432.78 l 0.894,-25.76 c 2.293,-65.82 19.704,-130.24 50.879,-188.26 l 41.36,-76.97 c 0,0 138.508,157.26 134.183,344 -4.324,186.73 30.418,203.75 30.418,203.75" /><path
               inkscape:connector-curvature="0"
               id="path110"
               style="fill:#4a2213;fill-opacity:1;fill-rule:nonzero;stroke:none"
               d="m 1393.35,4689.54 146.89,-71.94 c 70.15,-34.37 113.57,-106.74 110.85,-184.82 l -0.9,-25.76 c -2.29,-65.82 -19.7,-130.24 -50.88,-188.26 l -41.36,-76.97 c 0,0 -138.51,157.26 -134.18,344 4.32,186.73 -30.42,203.75 -30.42,203.75" /><path
               inkscape:connector-curvature="0"
               id="path112"
               style="fill:#e9b27d;fill-opacity:1;fill-rule:nonzero;stroke:none"
               d="m 2366.02,494.859 c 0,0 -1.88,0.86 -5.42,2.473 -1.92,0.91 -4.69,2.098 -7.16,3.379 -2.47,1.281 -5.31,2.75 -8.49,4.398 -6.22,3.391 -13.62,7.481 -21.79,12.52 -8.15,5.023 -17.23,10.769 -26.68,17.523 -9.69,6.407 -19.41,14.368 -29.9,22.317 -10.02,8.59 -20.86,17.16 -31.11,27.121 -5.13,4.93 -10.34,9.93 -15.62,15 -5.25,5.058 -10.08,10.73 -15.17,16.121 -10.32,10.648 -19.69,22.48 -29.01,34.168 l -7,8.723 -6.4,9.187 c -4.23,6.09 -8.43,12.152 -12.61,18.16 -8.28,12 -14.98,24.821 -22.12,36.551 -6.96,11.879 -12.17,24.262 -17.83,35.398 -5.85,11.071 -9.59,22.434 -13.67,32.493 -3.72,10.25 -8,19.16 -10.19,27.757 -2.48,8.422 -4.65,15.762 -6.44,21.813 -3.53,12 -5.55,18.859 -5.55,18.859 0,0 3.47,-6.269 9.53,-17.238 3.01,-5.434 6.67,-12.043 10.86,-19.613 3.87,-7.688 9.99,-15.481 15.66,-24.379 6.02,-8.719 11.8,-18.508 19.68,-27.738 7.69,-9.313 14.94,-19.622 23.85,-29.172 9.09,-9.41 17.64,-19.649 27.62,-28.879 4.98,-4.582 9.99,-9.211 15.03,-13.84 l 7.5,-6.93 8.04,-6.41 c 10.65,-8.562 21.13,-17.121 32.33,-24.441 5.52,-3.731 10.73,-7.719 16.3,-11.09 5.55,-3.371 11.03,-6.692 16.42,-9.961 10.66,-6.598 21.67,-11.828 31.68,-17.207 10.43,-4.711 19.96,-9.602 29.2,-13.07 9.06,-3.852 17.48,-6.84 24.92,-9.411 7.4,-2.562 13.91,-4.429 19.12,-5.929 2.59,-0.672 4.91,-1.282 6.92,-1.801 2.02,-0.539 3.15,-0.641 4.35,-0.91 2.76,-0.582 4.23,-0.891 4.23,-0.891 l -31.08,-95.051" /><path
               inkscape:connector-curvature="0"
               id="path114"
               style="fill:#ce7d43;fill-opacity:1;fill-rule:nonzero;stroke:none"
               d="M 2375.49,822.75 2585.84,671.969 V 349.801 l -188.37,-1.559 c -96.36,0 -148.69,20.317 -148.69,88.227 0,92.09 65.38,332.41 126.71,386.281" /><path
               inkscape:connector-curvature="0"
               id="path116"
               style="fill:#e9b27d;fill-opacity:1;fill-rule:nonzero;stroke:none"
               d="m 2496.97,941.66 c -104.94,-1 -188.13,-89.512 -188.13,-194.449 V 390 h 120 v 200 c 0,38.66 31.34,70 70,70 v 0 c 38.66,0 70,-31.34 70,-70 V 390 h 120 v 357.691 c 0,107.579 -84.01,194.989 -191.87,193.969" /><path
               inkscape:connector-curvature="0"
               id="path118"
               style="fill:#fcd7c3;fill-opacity:1;fill-rule:nonzero;stroke:none"
               d="m 2576.73,346.891 c -10.78,0 -18.71,10.55 -15.56,21.019 9.79,32.59 39.26,56.27 74.1,56.27 34.84,0 64.31,-23.68 74.1,-56.27 3.15,-10.469 -4.78,-21.019 -15.56,-21.019 h -117.08" /><path
               inkscape:connector-curvature="0"
               id="path120"
               style="fill:#fcd7c3;fill-opacity:1;fill-rule:nonzero;stroke:none"
               d="m 2295.24,346.891 c -7.59,0 -13.15,7.16 -11.53,14.699 7.71,35.808 38.68,62.59 75.73,62.59 37.05,0 68.02,-26.782 75.73,-62.59 1.62,-7.539 -3.94,-14.699 -11.53,-14.699 h -128.4" /><path
               inkscape:connector-curvature="0"
               id="path122"
               style="fill:#e9b27d;fill-opacity:1;fill-rule:nonzero;stroke:none"
               d="m 2139.8,1358.59 c -4.73,0.48 -116.59,12.59 -185.86,110.7 -53.58,75.89 -66.08,178.25 -37.13,304.2 l 8.98,39.07 38.73,7.95 c 3.45,0.71 24.82,6.93 67.81,6.93 173.98,0 267.67,-98.64 267.67,-263.87 v -22 l -137.33,-186.25 -22.87,3.27" /><path
               inkscape:connector-curvature="0"
               id="path124"
               style="fill:#fbc4aa;fill-opacity:1;fill-rule:nonzero;stroke:none"
               d="m 2145.77,1420.75 c 0,0 -241.39,23.91 -169.08,338.54 0,0 282.2,57.91 282.2,-195.72 l -113.12,-142.82" /><path
               inkscape:connector-curvature="0"
               id="path126"
               style="fill:#e9b27d;fill-opacity:1;fill-rule:nonzero;stroke:none"
               d="m 2857.88,1358.59 c 4.73,0.48 116.6,12.59 185.86,110.7 53.59,75.89 66.08,178.25 37.13,304.2 l -8.98,39.07 -38.72,7.95 c -3.46,0.71 -48.67,6.93 -91.65,6.93 -173.99,0 -291.52,-98.64 -291.52,-263.87 v -22 l 161.17,-186.25 46.71,3.27" /><path
               inkscape:connector-curvature="0"
               id="path128"
               style="fill:#fbc4aa;fill-opacity:1;fill-rule:nonzero;stroke:none"
               d="m 2851.92,1420.75 c 0,0 241.38,23.91 169.07,338.54 0,0 -282.2,57.91 -282.2,-195.72 l 113.13,-142.82" /><path
               inkscape:connector-curvature="0"
               id="path130"
               style="fill:#e9b27d;fill-opacity:1;fill-rule:nonzero;stroke:none"
               d="m 2080,1328.59 c 0,-195.01 194.08,-486.508 428.58,-486.508 234.5,0 401.42,291.498 401.42,486.508 v 31.53 c 0,195 -180.7,315.26 -415,315.26 v 0 c -234.31,0 -415,-120.26 -415,-315.26 v -31.53" /><path
               inkscape:connector-curvature="0"
               id="path132"
               style="fill:#111b18;fill-opacity:1;fill-rule:nonzero;stroke:none"
               d="m 2636.41,1187.93 c 0,-35.35 17.52,-64.01 39.14,-64.01 21.63,0 39.16,28.66 39.16,64.01 0,35.35 -17.53,64.01 -39.16,64.01 -21.62,0 -39.14,-28.66 -39.14,-64.01" /><path
               inkscape:connector-curvature="0"
               id="path134"
               style="fill:#111b18;fill-opacity:1;fill-rule:nonzero;stroke:none"
               d="m 2282.98,1187.93 c 0,-35.35 17.53,-64.01 39.15,-64.01 21.62,0 39.15,28.66 39.15,64.01 0,35.35 -17.53,64.01 -39.15,64.01 -21.62,0 -39.15,-28.66 -39.15,-64.01" /><path
               inkscape:connector-curvature="0"
               id="path136"
               style="fill:#fcd7c3;fill-opacity:1;fill-rule:nonzero;stroke:none"
               d="m 2553.84,1184.18 v 198.72 c 0,25.91 -21.19,47.1 -47.09,47.1 v 0 c -23.6,0 -42.91,-19.31 -42.91,-42.9 v -202.92 c 0,-46.49 -37.69,-84.18 -84.18,-84.18 v 0 c -69.49,0 -125.82,-56.33 -125.82,-125.82 v -7.11 c 70,-73.761 163.71,-124.988 261.91,-124.988 101.36,0 188.09,54.508 258.09,132.098 v 0 c 0,69.49 -56.33,125.82 -125.82,125.82 h -10 c -46.49,0 -84.18,37.69 -84.18,84.18" /><path
               inkscape:connector-curvature="0"
               id="path138"
               style="fill:#111b18;fill-opacity:1;fill-rule:nonzero;stroke:none"
               d="m 2510,1066.29 v 0.03 c 0,0 4.56,-0.01 5,-0.02 0.44,0.01 -5,0.02 5,0.02 v -0.03 c 40,-0.72 72.94,-13.81 57.35,-50.85 -27.66,-65.71 -95.73,-65.71 -118.39,0 -13.1,38.02 11.04,50.13 51.04,50.85" /><path
               inkscape:connector-curvature="0"
               id="path140"
               style="fill:#f68aa5;fill-opacity:1;fill-rule:nonzero;stroke:none"
               d="m 2519.73,909.102 c -28.52,0 -54.58,7.628 -77,20.707 l 0.61,-67.758 c 1.02,-42.731 36.05,-76.52 78.23,-75.481 l 2.24,0.059 c 42.18,1.031 75.53,36.512 74.51,79.242 l -0.57,65.219 c -23.7,-13.84 -50.63,-21.988 -78.02,-21.988" /><path
               inkscape:connector-curvature="0"
               id="path142"
               style="fill:#48494c;fill-opacity:1;fill-rule:nonzero;stroke:none"
               d="m 2358.83,3491.71 c -123.48,-1.18 -221.37,-105.96 -221.37,-230.2 v -233.46 h 141.21 v 142.06 c 0,45.77 36.88,82.87 82.37,82.87 v 0 c 45.49,0 82.37,-37.1 82.37,-82.87 v -142.06 h 141.21 v 234.02 c 0,127.37 -98.86,230.85 -225.79,229.64" /><path
               inkscape:connector-curvature="0"
               id="path144"
               style="fill:#914d1d;fill-opacity:1;fill-rule:nonzero;stroke:none"
               d="m 2453.66,3002.45 c -11.54,0 -20.04,11.36 -16.67,22.64 10.5,35.12 42.05,60.63 79.36,60.63 37.31,0 68.87,-25.51 79.36,-60.63 3.37,-11.28 -5.12,-22.64 -16.66,-22.64 h -125.39" /><path
               inkscape:connector-curvature="0"
               id="path146"
               style="fill:#914d1d;fill-opacity:1;fill-rule:nonzero;stroke:none"
               d="m 2143,3002.45 c -8.14,0 -14.09,7.72 -12.35,15.84 8.25,38.58 41.42,67.43 81.1,67.43 39.68,0 72.85,-28.85 81.1,-67.43 1.74,-8.12 -4.22,-15.84 -12.35,-15.84 H 2143" /><path
               inkscape:connector-curvature="0"
               id="path148"
               style="fill:#48494c;fill-opacity:1;fill-rule:nonzero;stroke:none"
               d="m 2208.93,3266.48 c 0,0 -1.83,-0.61 -5.26,-1.77 -3.23,-1.03 -7.64,-2.26 -13.26,-3.69 -11.18,-2.8 -26.96,-6.05 -46.19,-8.15 -19.25,-1.91 -42.02,-2.88 -66.62,0.5 -24.45,3.1 -50.85,11.09 -73.69,25.25 -11.21,7.35 -21.8,15.48 -30.29,25.12 -8.87,9.25 -15.69,19.63 -21.53,29.67 -2.84,5.07 -5.07,10.3 -7.48,15.21 -2.19,5.02 -3.81,10.1 -5.62,14.89 -1.89,4.76 -2.79,9.67 -4.13,14.22 -1.32,4.57 -2.35,9 -3.02,13.32 -0.76,4.27 -1.5,8.35 -2.2,12.24 -0.55,3.89 -0.85,7.61 -1.24,11.07 -0.79,6.92 -1.34,12.91 -1.38,17.89 -0.36,9.86 -0.56,15.5 -0.56,15.5 0,0 1.74,-5.35 4.78,-14.7 1.38,-4.67 3.53,-10.22 6.12,-16.46 1.29,-3.12 2.54,-6.47 4.06,-9.91 1.65,-3.36 3.39,-6.89 5.21,-10.58 1.7,-3.71 3.76,-7.41 6.09,-11.1 2.35,-3.67 4.29,-7.7 7.1,-11.3 2.74,-3.64 5.29,-7.51 8.28,-11.1 3.17,-3.45 6.12,-7.14 9.49,-10.46 6.87,-6.51 14.12,-12.72 22.3,-17.35 7.86,-5.06 16.73,-8.26 25.35,-10.95 35.39,-9.84 73.52,0.42 100,11.24 13.33,5.55 24.03,11.21 31.06,15.36 3.49,2.08 6.17,3.76 7.72,4.85 0.94,0.6 1.06,0.83 1.33,1.04 0.25,0.22 0.77,0.53 0.7,0.49 l 42.88,-90.34" /><path
               inkscape:connector-curvature="0"
               id="path150"
               style="fill:#48494c;fill-opacity:1;fill-rule:nonzero;stroke:none"
               d="m 2204.87,3134.32 154.15,-48.6 31.19,180.41 -117.88,117.89 -67.46,-249.7" /><path
               inkscape:connector-curvature="0"
               id="path152"
               style="fill:#48494c;fill-opacity:1;fill-rule:nonzero;stroke:none"
               d="m 2543.34,3416.75 c -123.49,-1.18 -221.37,-105.97 -221.37,-230.21 v -233.46 h 141.21 v 142.06 c 0,45.77 36.87,82.87 82.37,82.87 v 0 c 45.49,0 82.37,-37.1 82.37,-82.87 v -142.06 h 141.21 v 234.02 c 0,127.37 -98.86,230.86 -225.79,229.65" /><path
               inkscape:connector-curvature="0"
               id="path154"
               style="fill:#ce7d43;fill-opacity:1;fill-rule:nonzero;stroke:none"
               d="m 2628.96,2927.48 c -11.54,0 -20.04,11.37 -16.67,22.64 10.5,35.13 42.05,60.64 79.36,60.64 37.32,0 68.87,-25.51 79.36,-60.64 3.37,-11.27 -5.12,-22.64 -16.66,-22.64 h -125.39" /><path
               inkscape:connector-curvature="0"
               id="path156"
               style="fill:#ce7d43;fill-opacity:1;fill-rule:nonzero;stroke:none"
               d="m 2327.51,2927.48 c -8.14,0 -14.09,7.72 -12.35,15.85 8.25,38.57 41.42,67.43 81.1,67.43 39.68,0 72.85,-28.86 81.1,-67.43 1.73,-8.13 -4.22,-15.85 -12.35,-15.85 h -137.5" /><path
               inkscape:connector-curvature="0"
               id="path158"
               style="fill:#ce7d43;fill-opacity:1;fill-rule:nonzero;stroke:none"
               d="m 2100,3812.79 c 0,-210.11 203.41,-524.18 454.54,-524.18 251.14,0 425.46,314.07 425.46,524.18 v 33.96 c 0,210.1 -189.08,339.67 -440,339.67 v 0 c -250.93,0 -440,-129.57 -440,-339.67 v -33.96" /><path
               inkscape:connector-curvature="0"
               id="path160"
               style="fill:#48494c;fill-opacity:1;fill-rule:nonzero;stroke:none"
               d="m 2540.19,4186.42 c -250.93,0 -444.44,-129.57 -444.44,-339.67 v -33.96 c 0,-54.44 14.06,-115.86 39.11,-176.99 37.86,18.56 79.45,29.07 121.54,29.07 120.49,0 217.38,-74.68 260.79,-178.01 16.49,-0.52 32.54,-2.37 48.02,-5.58 35.12,116.88 152.86,205.14 274.84,205.14 42.99,0 82.94,-9.58 118.57,-26.5 16.89,53.05 26.01,105.59 26.01,152.87 v 33.96 c 0,210.1 -193.52,339.67 -444.44,339.67" /><path
               inkscape:connector-curvature="0"
               id="path162"
               style="fill:#111b18;fill-opacity:1;fill-rule:nonzero;stroke:none"
               d="m 2650.03,3747.43 c 0,-38.09 18.77,-68.97 41.93,-68.97 23.16,0 41.93,30.88 41.93,68.97 0,38.09 -18.77,68.96 -41.93,68.96 -23.16,0 -41.93,-30.87 -41.93,-68.96" /><path
               inkscape:connector-curvature="0"
               id="path164"
               style="fill:#111b18;fill-opacity:1;fill-rule:nonzero;stroke:none"
               d="m 2357.21,3747.43 c 0,-38.09 18.77,-68.97 41.93,-68.97 23.15,0 41.92,30.88 41.92,68.97 0,38.09 -18.77,68.96 -41.92,68.96 -23.16,0 -41.93,-30.87 -41.93,-68.96" /><path
               inkscape:connector-curvature="0"
               id="path166"
               style="fill:#111b18;fill-opacity:1;fill-rule:nonzero;stroke:none"
               d="m 2540,3559.56 v 0.04 c 0,0 4.46,-0.02 5,-0.02 0.54,0 -5,0.02 5,0.02 v -0.04 c 40,-0.89 88.14,-17.04 69.01,-62.74 -33.93,-81.09 -115.62,-81.09 -143.41,0 -16.07,46.91 4.4,61.85 64.4,62.74" /><path
               inkscape:connector-curvature="0"
               id="path168"
               style="fill:#111b18;fill-opacity:1;fill-rule:nonzero;stroke:none"
               d="m 2398.62,4162.36 c 0,0 -56.55,26.84 -181.49,-40.98 -146.86,-79.73 -252.58,-228.02 -249.89,-373.95 4.4,-237.94 146.36,-311.43 221.33,-249.63 74.96,61.8 81.72,178.87 78.07,237.63 l -6.32,102.12 c -4.85,78.15 15.28,158.12 57.2,227.25 l 81.1,97.56" /><path
               inkscape:connector-curvature="0"
               id="path170"
               style="fill:#111b18;fill-opacity:1;fill-rule:nonzero;stroke:none"
               d="m 2692.48,4162.36 c 0,0 56.55,26.84 181.49,-40.98 146.86,-79.73 252.58,-228.02 249.88,-373.95 -4.39,-237.94 -146.36,-311.43 -221.32,-249.63 -74.97,61.8 -81.72,178.87 -78.08,237.63 l 6.33,102.12 c 4.84,78.15 -15.29,158.12 -57.21,227.25 l -81.09,97.56" /><path
               inkscape:connector-curvature="0"
               id="path172"
               style="fill:#f68aa5;fill-opacity:1;fill-rule:nonzero;stroke:none"
               d="m 2544.81,3358.37 c -26.26,0 -50.25,7.03 -70.9,19.07 l 0.56,-62.38 c 0.94,-39.35 33.19,-70.46 72.03,-69.51 l 2.06,0.06 c 38.84,0.95 69.54,33.61 68.6,72.96 l -0.52,60.05 c -21.82,-12.74 -46.62,-20.25 -71.83,-20.25" /><path
               inkscape:connector-curvature="0"
               id="path174"
               style="fill:#c5d4d2;fill-opacity:1;fill-rule:nonzero;stroke:none"
               d="m 4223.06,4277.05 v 0 c 76.53,68.39 94.85,180.97 43.94,270.09 l -96.43,168.81 -108.64,-116.6 c -50.02,-53.69 -70.96,-128.28 -56.19,-200.15 l 21.86,-106.43 195.46,-15.72" /><path
               inkscape:connector-curvature="0"
               id="path176"
               style="fill:none;stroke:#48494c;stroke-width:50;stroke-linecap:round;stroke-linejoin:miter;stroke-miterlimit:10;stroke-dasharray:none;stroke-opacity:1"
               d="m 4223.06,4277.05 v 0 c 76.53,68.39 94.85,180.97 43.94,270.09 l -96.43,168.81 -108.64,-116.6 c -50.02,-53.69 -70.96,-128.28 -56.19,-200.15 l 21.86,-106.43 z" /><path
               inkscape:connector-curvature="0"
               id="path178"
               style="fill:#c5d4d2;fill-opacity:1;fill-rule:nonzero;stroke:none"
               d="m 3556.78,4277.05 v 0 c -76.53,68.39 -94.84,180.97 -43.93,270.09 l 96.42,168.81 108.65,-116.6 c 50.02,-53.69 70.96,-128.28 56.19,-200.15 l -21.86,-106.43 -195.47,-15.72" /><path
               inkscape:connector-curvature="0"
               id="path180"
               style="fill:none;stroke:#48494c;stroke-width:50;stroke-linecap:round;stroke-linejoin:miter;stroke-miterlimit:10;stroke-dasharray:none;stroke-opacity:1"
               d="m 3556.78,4277.05 v 0 c -76.53,68.39 -94.84,180.97 -43.93,270.09 l 96.42,168.81 108.65,-116.6 c 50.02,-53.69 70.96,-128.28 56.19,-200.15 l -21.86,-106.43 z" /><path
               inkscape:connector-curvature="0"
               id="path182"
               style="fill:#748588;fill-opacity:1;fill-rule:nonzero;stroke:none"
               d="m 4195.2,3134.31 c 0,0 215.05,-44.31 301.01,205.69 h -54.04 c 0,0 68.08,110 54.04,280 h -54.04 c 0,0 56.13,161.39 -65.27,308.2 0,0 -91.72,-138.2 -113.22,-258.2 h -141.51 l 73.03,-535.69" /><path
               inkscape:connector-curvature="0"
               id="path184"
               style="fill:#d7e1df;fill-opacity:1;fill-rule:nonzero;stroke:none"
               d="M 3965.45,3719.39 C 3685.04,3737.3 3741.31,3479 3741.31,3479 v -507.2 l 354.67,-2.89 c 181.44,0 217.14,59.36 217.14,185.02 0,170.37 -67.27,547.55 -347.67,565.46" /><path
               inkscape:connector-curvature="0"
               id="path186"
               style="fill:#48494c;fill-opacity:1;fill-rule:nonzero;stroke:none"
               d="m 3548.84,3560.78 v -550.79 h 290 v 446.03 c 5.96,27.74 23.17,55.93 54.86,55.93 30.41,0 55.14,-25.42 55.14,-56.66 v -393.2 c 0,-19.23 0.94,-36.42 2.04,-52.1 h 297.96 v 615.72 c 0,58.58 -20.97,120.92 -58.63,176.82 l 234.27,179.1 c 0,0 -163.36,396.93 -183.15,428.94 -40.57,65.62 -113.15,109.43 -195.76,109.43 h -305.28 c -86,0 -161.12,-47.47 -200.59,-117.61 -17.26,-30.67 -161.2,-452.79 -161.2,-452.79 l 243.08,-159.76 c -47.23,-66.6 -72.74,-146.08 -72.74,-229.06" /><path
               inkscape:connector-curvature="0"
               id="path188"
               style="fill:#d7e1df;fill-opacity:1;fill-rule:nonzero;stroke:none"
               d="m 4362.18,3996.93 c 0,0 -144.82,354.2 -159.25,380.09 -30.83,55.31 -89.92,92.98 -157.36,92.98 L 3889.92,4179.95 3740.28,4470 c -72.29,0 -134.98,-43.28 -163.56,-105.18 -10.56,-22.88 -137.32,-395.42 -137.32,-395.42 l 256.18,-168.36 c -100.79,-184.14 198.12,-239.09 198.12,-239.09 0,0 349.56,37 226.2,249.77 l 242.28,185.21" /><path
               inkscape:connector-curvature="0"
               id="path190"
               style="fill:#a1b8b8;fill-opacity:1;fill-rule:nonzero;stroke:none"
               d="m 3813.35,2945.86 c 22.35,0 38.8,21.5 32.27,42.84 -20.32,66.43 -81.43,114.68 -153.68,114.68 -72.26,0 -133.37,-48.25 -153.69,-114.68 -6.52,-21.34 9.93,-42.84 32.28,-42.84 h 242.82" /><path
               inkscape:connector-curvature="0"
               id="path192"
               style="fill:#a1b8b8;fill-opacity:1;fill-rule:nonzero;stroke:none"
               d="m 4227.62,2945.86 c 22.35,0 38.8,21.5 32.27,42.84 -20.32,66.43 -81.43,114.68 -153.68,114.68 -72.26,0 -133.37,-48.25 -153.69,-114.68 -6.52,-21.34 9.93,-42.84 32.28,-42.84 h 242.82" /><path
               inkscape:connector-curvature="0"
               id="path194"
               style="fill:#f68aa5;fill-opacity:1;fill-rule:nonzero;stroke:none"
               d="m 3818.3,3949.43 2.17,-170.57 c 1.02,-42.73 36.05,-76.52 78.23,-75.49 l 2.24,0.06 c 42.18,1.04 75.53,36.51 74.51,79.25 l -2.08,166.75 H 3818.3" /><path
               inkscape:connector-curvature="0"
               id="path196"
               style="fill:#111b18;fill-opacity:1;fill-rule:nonzero;stroke:none"
               d="m 4041.94,4198.9 c 0,-28.51 14.39,-51.62 32.13,-51.62 17.75,0 32.14,23.11 32.14,51.62 0,28.51 -14.39,51.62 -32.14,51.62 -17.74,0 -32.13,-23.11 -32.13,-51.62" /><path
               inkscape:connector-curvature="0"
               id="path198"
               style="fill:#a1b8b8;fill-opacity:1;fill-rule:nonzero;stroke:none"
               d="m 3931.94,3815.23 h -70.11 c -60.5,0 -110,49.5 -110,110 v 70.12 c 0,60.49 49.5,109.99 110,109.99 h 70.11 c 60.5,0 110,-49.5 110,-109.99 v -70.12 c 0,-60.5 -49.5,-110 -110,-110" /><path
               inkscape:connector-curvature="0"
               id="path200"
               style="fill:#111b18;fill-opacity:1;fill-rule:nonzero;stroke:none"
               d="m 3674.12,4190.74 c 0,-28.51 14.39,-51.62 32.13,-51.62 17.75,0 32.14,23.11 32.14,51.62 0,28.51 -14.39,51.63 -32.14,51.63 -17.74,0 -32.13,-23.12 -32.13,-51.63" /><path
               inkscape:connector-curvature="0"
               id="path202"
               style="fill:#111b18;fill-opacity:1;fill-rule:nonzero;stroke:none"
               d="m 3900,4037.61 v 0.07 c 0,0 4.4,-0.03 5,-0.04 0.6,0.01 -5,0.04 5,0.04 v -0.07 c 50,-1.32 101,-35.39 67.37,-93.22 -61.99,-106.57 -115.27,-53.15 -154.2,0 -38.24,52.22 16.83,91.9 76.83,93.22" /><g
               transform="scale(10)"
               id="g204" /><path
               inkscape:connector-curvature="0"
               id="path256"
               style="fill:#faccd6;fill-opacity:1;fill-rule:nonzero;stroke:none"
               d="m 2460.5,2250.01 c -0.01,0.03 -0.01,0.06 -0.01,0.1 0,-0.04 0,-0.07 0.01,-0.1" /><path
               inkscape:connector-curvature="0"
               id="path258"
               style="fill:#faccd6;fill-opacity:1;fill-rule:nonzero;stroke:none"
               d="m 2461.18,2245.68 c 0.02,0 0.02,0 0.02,0 -0.26,1.23 -0.46,2.46 -0.62,3.67 0.16,-1.22 0.36,-2.45 0.6,-3.67" /><path
               inkscape:connector-curvature="0"
               id="path260"
               style="fill:#faccd6;fill-opacity:1;fill-rule:nonzero;stroke:none"
               d="m 2465.67,2233.12 c -0.03,0.05 -0.06,0.11 -0.09,0.17 0.03,-0.06 0.06,-0.12 0.09,-0.17" /><path
               inkscape:connector-curvature="0"
               id="path262"
               style="fill:#faccd6;fill-opacity:1;fill-rule:nonzero;stroke:none"
               d="m 2465.24,2233.95 c -0.12,0.24 -0.23,0.47 -0.34,0.71 0.11,-0.25 0.22,-0.47 0.34,-0.71" /><path
               inkscape:connector-curvature="0"
               id="path264"
               style="fill:#faccd6;fill-opacity:1;fill-rule:nonzero;stroke:none"
               d="m 2462.44,2240.85 c 0.67,-2.09 1.46,-4.12 2.39,-6.05 -0.94,1.97 -1.72,4 -2.37,6.05 h -0.02" /></g></g><text
           xml:space="preserve"
           style="font-style:normal;font-variant:normal;font-weight:bold;font-stretch:normal;font-size:42.54948425px;line-height:1.25;font-family:sans-serif;-inkscape-font-specification:'sans-serif Bold';letter-spacing:0px;word-spacing:0px;fill:#ff0000;fill-opacity:1;stroke:none;stroke-width:1.13971829"
           x="-1587.3715"
           y="-237.82404"
           id="text675"
           transform="scale(0.93191945,-1.0730541)"><tspan
             sodipodi:role="line"
             id="tspan673"
             x="-1587.3715"
             y="-237.82404"
             style="font-style:normal;font-variant:normal;font-weight:bold;font-stretch:normal;font-size:42.54948425px;font-family:sans-serif;-inkscape-font-specification:'sans-serif Bold';fill:#0000ff;stroke-width:1.13971829">PATITAS ARRIBA</tspan></text>
<text
           transform="scale(0.93191945,-1.0730541)"
           id="text941"
           y="-237.82404"
           x="-1587.3715"
           style="font-style:normal;font-variant:normal;font-weight:bold;font-stretch:normal;font-size:42.54948425px;line-height:1.25;font-family:sans-serif;-inkscape-font-specification:'sans-serif Bold';letter-spacing:0px;word-spacing:0px;fill:#ff0000;fill-opacity:1;stroke:none;stroke-width:1.13971829"
           xml:space="preserve"><tspan
             style="font-style:normal;font-variant:normal;font-weight:bold;font-stretch:normal;font-size:42.54948425px;font-family:sans-serif;-inkscape-font-specification:'sans-serif Bold';fill:#0000ff;stroke-width:1.13971829"
             y="-237.82404"
             x="-1587.3715"
             id="tspan939"
             sodipodi:role="line">PATITAS ARRIBA</tspan></text>
</g></g></g></svg>