<?xml version="1.0" encoding="UTF-8" standalone="no"?>
<!-- Created with Inkscape (http://www.inkscape.org/) -->

<svg
   xmlns:osb="http://www.openswatchbook.org/uri/2009/osb"
   xmlns:dc="http://purl.org/dc/elements/1.1/"
   xmlns:cc="http://creativecommons.org/ns#"
   xmlns:rdf="http://www.w3.org/1999/02/22-rdf-syntax-ns#"
   xmlns:svg="http://www.w3.org/2000/svg"
   xmlns="http://www.w3.org/2000/svg"
   xmlns:sodipodi="http://sodipodi.sourceforge.net/DTD/sodipodi-0.dtd"
   xmlns:inkscape="http://www.inkscape.org/namespaces/inkscape"
   version="1.1"
   id="svg2"
   xml:space="preserve"
   width="666.66669"
   height="665.77332"
   viewBox="0 0 666.66669 665.77332"
   sodipodi:docname="IMAGEN2.svg"
   inkscape:version="0.92.3 (2405546, 2018-03-11)"><metadata
     id="metadata8"><rdf:RDF><cc:Work
         rdf:about=""><dc:format>image/svg+xml</dc:format><dc:type
           rdf:resource="http://purl.org/dc/dcmitype/StillImage" /><dc:title></dc:title></cc:Work></rdf:RDF></metadata><defs
     id="defs6"><linearGradient
       id="linearGradient1265"
       osb:paint="solid"><stop
         style="stop-color:#5baaff;stop-opacity:0;"
         offset="0"
         id="stop1263" /></linearGradient><clipPath
       clipPathUnits="userSpaceOnUse"
       id="clipPath64"><path
         d="m 925.902,3051.97 c -0.589,6.3 3.09,14.92 10.907,20.53 5.175,3.72 11.164,5.4 16.343,5.4 1.887,0 3.668,-0.23 5.266,-0.66 -14.941,-1.69 -27.359,-11.69 -32.516,-25.27"
         id="path62"
         inkscape:connector-curvature="0" /></clipPath></defs><sodipodi:namedview
     pagecolor="#ffffff"
     bordercolor="#666666"
     borderopacity="1"
     objecttolerance="10"
     gridtolerance="10"
     guidetolerance="10"
     inkscape:pageopacity="0"
     inkscape:pageshadow="2"
     inkscape:window-width="1366"
     inkscape:window-height="684"
     id="namedview4"
     showgrid="false"
     inkscape:snap-text-baseline="true"
     inkscape:zoom="0.70710678"
     inkscape:cx="328.05437"
     inkscape:cy="460.08337"
     inkscape:window-x="0"
     inkscape:window-y="28"
     inkscape:window-maximized="1"
     inkscape:current-layer="g10" /><g
     id="g10"
     inkscape:groupmode="layer"
     inkscape:label="ink_ext_XXXXXX"
     transform="matrix(1.3333333,0,0,-1.3333333,0,665.77333)"><g
       id="g20" /><g
       id="g2618"><path
         d="m 144.542,253.916 c 0,-4.832 -28.43,-8.75 -63.5002,-8.75 -35.0703,0 -63.5,3.918 -63.5,8.75 0,4.833 28.4297,8.75 63.5,8.75 35.0702,0 63.5002,-3.917 63.5002,-8.75"
         style="fill:#b1d2b9;fill-opacity:1;fill-rule:nonzero;stroke:none;stroke-width:0.1"
         id="path30"
         inkscape:connector-curvature="0" /><path
         d="m 51.6484,258.108 c -4.5273,0.428 -13.1238,4.315 -17.2886,6.141 -4.8563,2.13 -8.7875,6.03 -11.6535,10.492 -0.9364,1.457 -1.7672,2.974 -2.5161,4.533 -1.4496,3.019 1.7571,6.165 4.7063,4.579 8.4984,-4.573 17.9808,-7.324 27.6137,-7.943 l -0.8618,-17.802"
         style="fill:#e9e8e7;fill-opacity:1;fill-rule:nonzero;stroke:none;stroke-width:0.1"
         id="path32"
         inkscape:connector-curvature="0" /><path
         d="m 119.683,271.703 c -2.242,9.052 -1.484,18.594 -1.532,27.96 -0.048,9.366 -1.102,19.259 -6.289,26.779 l -52.0331,-0.625 c -0.5344,-5.011 -2.8109,-9.616 -5.4848,-13.75 -2.6742,-4.133 -5.7836,-7.933 -8.3113,-12.172 -4.9926,-8.373 -7.5773,-18.863 -5.1293,-28.474 2.1422,-8.411 8.7375,-15.681 16.5403,-17.266 9.3648,-2.348 19.1,0.811 28.7406,1.217 1.9945,0.084 3.9847,0.053 5.9672,-0.172 3.3722,-0.384 6.6668,-1.318 9.9754,-2.125 4.593,-1.12 9.67,-1.933 13.792,0.515 l 0.03,0.02 c 3.185,1.908 5.306,5.726 5.361,9.659 0.04,2.881 -0.937,5.649 -1.627,8.434"
         style="fill:#ffffff;fill-opacity:1;fill-rule:nonzero;stroke:none;stroke-width:0.1"
         id="path34"
         inkscape:connector-curvature="0" /><path
         d="m 118.243,250.536 0.03,0.016 c 3.161,1.575 5.22,4.626 5.201,7.717 -0.015,2.264 -1.047,4.415 -1.792,6.587 -2.421,7.058 -1.839,14.572 -2.063,21.929 -0.192,6.285 -1.134,12.85 -4.74,18.236 -0.965,1.441 -2.903,2.318 -4.992,2.288 -2.109,-0.031 -4.046,-0.981 -4.977,-2.471 -3.514,-5.617 -4.161,-12.356 -4.05,-18.764 0.128,-7.359 1.068,-14.837 -1.0131,-22.002 -0.6403,-2.205 -1.5692,-4.402 -1.475,-6.665 0.1285,-3.088 2.3301,-6.037 5.5631,-7.459 l 0.031,-0.015 0.259,-0.102 0.179,-0.03 c 4.633,-0.77 9.746,-1.287 13.839,0.735"
         style="fill:#fafafa;fill-opacity:1;fill-rule:nonzero;stroke:none;stroke-width:0.1"
         id="path36"
         inkscape:connector-curvature="0" /><path
         d="m 91.3633,247.415 0.0301,0.016 c 3.1617,1.575 5.2199,4.626 5.2007,7.717 -0.014,2.264 -1.0464,4.415 -1.7914,6.587 -2.4207,7.057 -1.8394,14.571 -2.0632,21.928 -0.1915,6.285 -1.1344,12.851 -4.7403,18.237 -0.9648,1.441 -2.9027,2.318 -4.9922,2.287 -2.109,-0.03 -4.0453,-0.981 -4.9769,-2.47 -3.5137,-5.617 -4.1606,-12.357 -4.0492,-18.764 0.1273,-7.359 1.0671,-14.837 -1.0137,-22.002 -0.6402,-2.205 -1.5688,-4.403 -1.4746,-6.665 0.1285,-3.088 2.3301,-6.037 5.5633,-7.46 l 0.0308,-0.014 0.2594,-0.102 0.1785,-0.031 c 4.6332,-0.769 9.7465,-1.286 13.8387,0.736"
         style="fill:#fafafa;fill-opacity:1;fill-rule:nonzero;stroke:none;stroke-width:0.1"
         id="path38"
         inkscape:connector-curvature="0" /><path
         d="m 88.0988,246.602 c 0,0 -2.1636,3.105 -1.5355,6.714 0,0 -2.0488,-5.088 -1.516,-7.285 0,0 1.9535,-0.065 3.0515,0.571"
         style="fill:#e9e8e7;fill-opacity:1;fill-rule:nonzero;stroke:none;stroke-width:0.1"
         id="path40"
         inkscape:connector-curvature="0" /><path
         d="m 78.8574,246.589 c 0,0 -1.1879,4.422 -0.4621,6.908 0,0 -2.0953,-3.84 -2.0832,-6.344 0,0 1.4504,-0.684 2.5453,-0.564"
         style="fill:#e9e8e7;fill-opacity:1;fill-rule:nonzero;stroke:none;stroke-width:0.1"
         id="path42"
         inkscape:connector-curvature="0" /><path
         d="m 106.759,249.611 c 0,0 1.999,3.213 1.183,6.784 0,0 2.312,-4.974 1.894,-7.195 0,0 -1.947,-0.167 -3.077,0.411"
         style="fill:#e9e8e7;fill-opacity:1;fill-rule:nonzero;stroke:none;stroke-width:0.1"
         id="path44"
         inkscape:connector-curvature="0" /><path
         d="m 116.679,250.054 c 0,0 0.49,4.553 -0.613,6.897 0,0 2.665,-3.47 3.041,-5.945 0,0 -1.328,-0.9 -2.428,-0.952"
         style="fill:#e9e8e7;fill-opacity:1;fill-rule:nonzero;stroke:none;stroke-width:0.1"
         id="path46"
         inkscape:connector-curvature="0" /><path
         d="m 63.3043,291.512 c 2.5293,8.978 -1.3359,18.041 -8.7074,21.193 l -0.0864,-0.138 c -2.6738,-4.133 -5.7832,-7.933 -8.3109,-12.172 -3.698,-6.202 -6.2933,-13.588 -6.2828,-20.895 0.9012,-0.486 2.0844,-0.861 3.1012,-1.147 8.4832,-2.39 17.5656,3.502 20.2863,13.159"
         style="fill:#dfdfdd;fill-opacity:1;fill-rule:nonzero;stroke:none;stroke-width:0.1"
         id="path48"
         inkscape:connector-curvature="0" /><path
         d="m 55.7918,315.041 c 0,0 27.7918,-20.625 61.6252,-3 l -1.5,5.25 -57.5002,5.625 -2.625,-7.875"
         style="fill:#71cfce;fill-opacity:1;fill-rule:nonzero;stroke:none;stroke-width:0.1"
         id="path50"
         inkscape:connector-curvature="0" /><path
         d="m 100.917,303.791 c 0,-2.554 -2.0709,-4.625 -4.6252,-4.625 -2.5543,0 -4.625,2.071 -4.625,4.625 0,2.555 2.0707,4.625 4.625,4.625 2.5543,0 4.6252,-2.07 4.6252,-4.625"
         style="fill:#f4cc52;fill-opacity:1;fill-rule:nonzero;stroke:none;stroke-width:0.1"
         id="path52"
         inkscape:connector-curvature="0" /><path
         d="m 100.25,303.791 c 0,-2.186 -1.7723,-3.958 -3.9582,-3.958 -2.1863,0 -3.9582,1.772 -3.9582,3.958 0,2.187 1.7719,3.959 3.9582,3.959 2.1859,0 3.9582,-1.772 3.9582,-3.959"
         style="fill:#f9d85e;fill-opacity:1;fill-rule:nonzero;stroke:none;stroke-width:0.1"
         id="path54"
         inkscape:connector-curvature="0" /><path
         d="m 99.1043,306.75 c 0,0 -0.7707,-5.375 -6.6043,-4.646 0,0 0.625,-2.438 3.4793,-2.458 2.8543,-0.021 4.4997,2.125 4.5627,2.916 0.062,0.792 -0.021,3.313 -0.6877,3.729 -0.6668,0.417 -0.75,0.459 -0.75,0.459"
         style="fill:#f4cc52;fill-opacity:1;fill-rule:nonzero;stroke:none;stroke-width:0.1"
         id="path56"
         inkscape:connector-curvature="0" /><g
         transform="scale(0.1)"
         id="g58"><g
           id="g60"
           clip-path="url(#clipPath64)"><path
             d="m 925.313,3051.97 h 33.1055 v 25.9297 H 925.313 Z"
             style="fill:#fefaea;fill-opacity:1;fill-rule:nonzero;stroke:none"
             id="path66"
             inkscape:connector-curvature="0" /></g></g><path
         d="m 92.9461,304.572 c -0.0594,0 -0.1199,0.041 -0.1863,0.133 -0.0953,0.133 -0.152,0.302 -0.1696,0.492 0.5157,1.358 1.7575,2.358 3.2516,2.527 0.2637,-0.071 0.4762,-0.198 0.6023,-0.374 0.4129,-0.575 -1.0402,-0.324 -2.0574,-1.054 -0.8543,-0.613 -1.1301,-1.724 -1.4406,-1.724"
         style="fill:#fffaec;fill-opacity:1;fill-rule:nonzero;stroke:none;stroke-width:0.1"
         id="path68"
         inkscape:connector-curvature="0" /><path
         d="m 105.616,387.316 c 2.088,3.136 3.545,6.691 4.176,10.408 -2.464,-4.182 -6.963,-7.086 -11.7756,-7.664 -0.2461,0.067 -0.4914,0.137 -0.7379,0.199 2.4102,3.669 2.0285,8.498 1.5336,12.892 -1.0598,-3.265 -3.973,-5.416 -6.7445,-7.442 -2.5676,-1.876 -5.3035,-4.762 -8.734,-4.876 -12.5,-0.417 -22.3512,-8.965 -24.2887,-11.819 -8.2215,-8.248 -13.782,-19.844 -13.6672,-32.669 0.2235,-24.98 19.7946,-37.379 44.4063,-37.159 24.611,0.221 44.944,12.977 44.72,37.957 -0.161,17.998 -13.33,33.105 -28.888,40.173"
         style="fill:#ffffff;fill-opacity:1;fill-rule:nonzero;stroke:none;stroke-width:0.1"
         id="path70"
         inkscape:connector-curvature="0" /><path
         d="m 58.7973,379.349 c 0,0 10.3429,-28.34 0.0855,-36.892 -10.2574,-8.553 -19.7715,-7.827 -19.7715,-7.827 0,0 -5.4457,0.076 -5.1511,5.775 0.2945,5.698 0.3382,34.321 24.8371,38.944"
         style="fill:#e9e8e7;fill-opacity:1;fill-rule:nonzero;stroke:none;stroke-width:0.1"
         id="path72"
         inkscape:connector-curvature="0" /><path
         d="m 125.833,359.75 c 0,-9.067 -7.35,-16.417 -16.416,-16.417 -9.067,0 -16.417,7.35 -16.417,16.417 0,9.066 7.35,16.416 16.417,16.416 9.066,0 16.416,-7.35 16.416,-16.416"
         style="fill:#dfdfdd;fill-opacity:1;fill-rule:nonzero;stroke:none;stroke-width:0.1"
         id="path74"
         inkscape:connector-curvature="0" /><path
         d="m 107.345,386.782 c 0,0 2.365,-30.076 15.248,-33.595 12.884,-3.518 21.236,1.095 21.236,1.095 0,0 4.922,2.331 2.287,7.392 -2.635,5.061 -14.565,31.08 -38.771,25.108"
         style="fill:#e9e8e7;fill-opacity:1;fill-rule:nonzero;stroke:none;stroke-width:0.1"
         id="path76"
         inkscape:connector-curvature="0" /><path
         d="m 119.079,330.023 c 1.167,-8.306 -8.182,-16.485 -20.8825,-18.27 -12.7,-1.784 -23.9414,3.502 -25.1086,11.807 -1.1672,8.305 8.182,16.485 20.8824,18.269 12.6997,1.785 23.9417,-3.501 25.1087,-11.806"
         style="fill:#fafafa;fill-opacity:1;fill-rule:nonzero;stroke:none;stroke-width:0.1"
         id="path78"
         inkscape:connector-curvature="0" /><path
         d="m 82.3055,348.084 c -0.0547,-2.388 -2.0352,-4.279 -4.4231,-4.224 -2.3883,0.055 -4.2797,2.035 -4.2246,4.423 0.0547,2.388 2.0352,4.279 4.4231,4.225 2.3879,-0.055 4.2793,-2.036 4.2246,-4.424"
         style="fill:#464648;fill-opacity:1;fill-rule:nonzero;stroke:none;stroke-width:0.1"
         id="path80"
         inkscape:connector-curvature="0" /><path
         d="m 109.997,354.142 c -0.055,-2.388 -2.036,-4.28 -4.424,-4.225 -2.388,0.055 -4.279,2.035 -4.224,4.423 0.055,2.388 2.035,4.279 4.423,4.225 2.388,-0.055 4.279,-2.035 4.225,-4.423"
         style="fill:#464648;fill-opacity:1;fill-rule:nonzero;stroke:none;stroke-width:0.1"
         id="path82"
         inkscape:connector-curvature="0" /><path
         d="m 96.6953,328.911 c 0.1024,-2.087 -0.1652,-4.263 -1.4109,-5.996 -1.1836,-1.647 -3.261,-3.285 -5.3121,-3.4 -0.4891,-0.028 -0.3606,-0.786 0.125,-0.758 2.266,0.127 4.5047,1.904 5.807,3.709 1.3742,1.905 1.6555,4.274 1.543,6.569 -0.0243,0.492 -0.7762,0.364 -0.752,-0.124"
         style="fill:#464648;fill-opacity:1;fill-rule:nonzero;stroke:none;stroke-width:0.1"
         id="path84"
         inkscape:connector-curvature="0" /><path
         d="m 97.1914,328.949 c 0.5727,-2.009 1.5246,-3.984 3.2606,-5.226 1.649,-1.179 4.142,-2.064 6.122,-1.515 0.472,0.131 0.594,-0.628 0.125,-0.758 -2.187,-0.606 -4.878,0.358 -6.69,1.649 -1.9129,1.363 -2.9399,3.517 -3.5695,5.726 -0.1356,0.475 0.6175,0.595 0.7519,0.124"
         style="fill:#464648;fill-opacity:1;fill-rule:nonzero;stroke:none;stroke-width:0.1"
         id="path86"
         inkscape:connector-curvature="0" /><path
         d="m 102.011,334.095 c 0.222,-1.942 -2.0426,-5.378 -5.279,-5.748 -3.2359,-0.371 -6.2179,2.466 -6.4398,4.408 -0.2223,1.941 2.2211,3.815 5.457,4.185 3.2363,0.371 6.0398,-0.903 6.2618,-2.845"
         style="fill:#464648;fill-opacity:1;fill-rule:nonzero;stroke:none;stroke-width:0.1"
         id="path88"
         inkscape:connector-curvature="0" /><path
         d="m 305.542,255.416 c 0,-4.832 -28.43,-8.75 -63.5,-8.75 -35.07,0 -63.5,3.918 -63.5,8.75 0,4.833 28.43,8.75 63.5,8.75 35.07,0 63.5,-3.917 63.5,-8.75"
         style="fill:#b1d2b9;fill-opacity:1;fill-rule:nonzero;stroke:none;stroke-width:0.1"
         id="path90"
         inkscape:connector-curvature="0" /><path
         d="m 272.563,325.999 c 2.111,-3.418 6.117,-5.08 9.863,-6.531 2.46,-0.954 4.936,-1.912 7.524,-2.428 4.484,-0.892 9.168,-0.429 13.621,-1.465 1.347,-0.314 2.912,-1.072 2.966,-2.454 0.049,-1.24 -1.152,-2.1 -2.105,-2.894 -3.78,-3.151 -5.094,-8.335 -5.803,-13.205 -0.157,-1.081 -0.313,-2.211 -0.943,-3.103 -0.492,-0.695 -1.235,-1.179 -2.016,-1.519 -2.973,-1.295 -6.495,-0.619 -9.355,0.911 -2.859,1.529 -5.217,3.825 -7.654,5.964 -2.438,2.139 -5.08,4.195 -8.199,5.081 -2.572,0.731 -5.319,0.617 -7.948,0.13 l 10.049,21.513"
         style="fill:#5fc8c2;fill-opacity:1;fill-rule:nonzero;stroke:none;stroke-width:0.1"
         id="path92"
         inkscape:connector-curvature="0" /><path
         d="m 278.746,266.07 c -2.558,3.202 -2.793,3.647 -5.894,6.032 2.883,10.835 4.658,22.293 3.686,33.622 -0.972,11.328 -4.909,22.553 -11.985,30.003 l -44.621,0.932 c -7.076,-7.449 -11.012,-18.675 -11.985,-30.003 -0.972,-11.328 0.803,-22.786 3.687,-33.621 -3.102,-2.386 -3.337,-2.831 -5.895,-6.033 -1.558,-1.95 -3.103,-4.509 -2.559,-7.148 0.395,-1.915 1.799,-3.259 3.217,-4.217 5.881,-3.975 10.935,-5.995 16.542,-1.472 0.559,0.452 1.122,0.953 1.783,1.097 0.373,0.082 0.752,0.038 1.128,-0.04 10.441,-3.512 21.583,-3.897 32.166,-1.082 0.575,0.153 1.168,0.316 1.748,0.19 0.66,-0.144 1.223,-0.645 1.782,-1.097 5.607,-4.524 10.661,-2.503 16.542,1.471 1.418,0.959 2.823,2.302 3.217,4.218 0.544,2.639 -1.001,5.198 -2.559,7.148"
         style="fill:#eed2b9;fill-opacity:1;fill-rule:nonzero;stroke:none;stroke-width:0.1"
         id="path94"
         inkscape:connector-curvature="0" /><path
         d="m 236.745,249.966 0.032,0.017 c 3.264,1.66 5.387,4.877 5.366,8.138 -0.016,2.389 -1.083,4.659 -1.853,6.95 -2.504,7.447 -1.908,15.375 -2.143,23.136 -0.201,6.631 -1.178,13.558 -4.904,19.242 -0.998,1.521 -2.999,2.447 -5.157,2.416 -2.177,-0.031 -4.176,-1.033 -5.138,-2.603 -3.625,-5.925 -4.289,-13.034 -4.171,-19.794 0.135,-7.764 1.11,-15.654 -1.035,-23.212 -0.66,-2.326 -1.618,-4.644 -1.519,-7.031 0.134,-3.258 2.409,-6.37 5.749,-7.872 l 0.031,-0.016 0.268,-0.107 0.185,-0.033 c 4.784,-0.814 10.065,-1.362 14.289,0.769"
         style="fill:#f5ddc7;fill-opacity:1;fill-rule:nonzero;stroke:none;stroke-width:0.1"
         id="path96"
         inkscape:connector-curvature="0" /><path
         d="m 263.599,250.08 0.031,0.017 c 3.264,1.66 5.387,4.878 5.366,8.138 -0.016,2.389 -1.083,4.659 -1.853,6.95 -2.504,7.448 -1.908,15.375 -2.143,23.136 -0.201,6.631 -1.178,13.558 -4.904,19.242 -0.998,1.521 -2.999,2.447 -5.156,2.416 -2.178,-0.031 -4.177,-1.033 -5.139,-2.603 -3.625,-5.925 -4.289,-13.034 -4.171,-19.794 0.136,-7.764 1.11,-15.654 -1.035,-23.212 -0.66,-2.326 -1.618,-4.644 -1.519,-7.031 0.134,-3.258 2.409,-6.37 5.749,-7.872 l 0.032,-0.016 0.267,-0.107 0.185,-0.033 c 4.785,-0.814 10.065,-1.362 14.29,0.769"
         style="fill:#f5ddc7;fill-opacity:1;fill-rule:nonzero;stroke:none;stroke-width:0.1"
         id="path98"
         inkscape:connector-curvature="0" /><path
         d="m 231.996,248.701 c 0,0 -1.914,3.265 -1.006,6.813 0,0 -2.44,-4.912 -2.081,-7.143 0,0 1.943,-0.218 3.087,0.33"
         style="fill:#eed2b9;fill-opacity:1;fill-rule:nonzero;stroke:none;stroke-width:0.1"
         id="path100"
         inkscape:connector-curvature="0" /><path
         d="m 222.782,249.41 c 0,0 -0.839,4.502 0.079,6.924 0,0 -2.389,-3.665 -2.573,-6.162 0,0 1.393,-0.795 2.494,-0.762"
         style="fill:#eed2b9;fill-opacity:1;fill-rule:nonzero;stroke:none;stroke-width:0.1"
         id="path102"
         inkscape:connector-curvature="0" /><path
         d="m 250.167,249.576 c 0,0 2.244,3.047 1.711,6.671 0,0 1.915,-5.139 1.325,-7.321 0,0 -1.954,-0.014 -3.036,0.65"
         style="fill:#eed2b9;fill-opacity:1;fill-rule:nonzero;stroke:none;stroke-width:0.1"
         id="path104"
         inkscape:connector-curvature="0" /><path
         d="m 260.092,249.243 c 0,0 0.844,4.501 -0.072,6.924 0,0 2.386,-3.668 2.567,-6.165 0,0 -1.394,-0.794 -2.495,-0.759"
         style="fill:#eed2b9;fill-opacity:1;fill-rule:nonzero;stroke:none;stroke-width:0.1"
         id="path106"
         inkscape:connector-curvature="0" /><path
         d="m 209.667,325.116 c -2.058,-0.271 -3.052,-2.393 -3.176,-4.216 -0.124,-1.823 2.833,-3.908 1.801,-5.494 -1.348,-2.069 -1.579,-2.71 -2.667,-4.894 -1.121,-2.251 0.764,-4.945 3.292,-6 2.528,-1.055 2.439,-0.923 5.235,-0.815 5.881,0.228 11.813,0.249 17.605,-0.676 1.857,-0.297 3.692,-0.69 5.55,-0.983 7.685,-1.208 15.722,-0.648 23.092,1.61 5.314,1.629 10.746,4.165 16.25,3.133 0.457,-0.085 0.935,-0.195 1.384,-0.08 0.979,0.25 1.231,1.344 1.308,2.237 0.114,1.322 0.205,2.739 -0.563,3.88 -0.344,0.511 -0.843,0.933 -1.173,1.451 -0.782,1.226 -0.502,2.732 -0.451,4.136 0.076,2.081 -0.417,4.175 -1.424,6.06 -0.235,0.439 -0.51,0.88 -0.942,1.183 -1.101,0.771 -2.704,0.377 -4.037,-0.023 -17.825,-5.349 -37.68,-5.334 -55.495,0.044 l -5.589,-0.553"
         style="fill:#71cfce;fill-opacity:1;fill-rule:nonzero;stroke:none;stroke-width:0.1"
         id="path108"
         inkscape:connector-curvature="0" /><path
         d="m 208.166,387.648 c -6.84,-8.142 -15.651,-14.332 -24.048,-20.855 -2.149,-1.67 -4.295,-3.384 -6.018,-5.491 -4.074,-4.984 -5.389,-12.088 -3.369,-18.2 0.84,-2.542 2.249,-4.941 4.297,-6.667 2.048,-1.726 4.77,-2.725 7.43,-2.411 1.776,0.21 3.437,0.977 5.008,1.832 1.636,0.89 3.234,1.903 4.509,3.261 1.485,1.582 2.471,3.566 3.282,5.58 1.976,4.908 3.033,10.146 4.974,15.068 1.94,4.922 4.986,9.707 9.685,12.14 0,0 9.483,16.766 -5.159,16.153 l -0.591,-0.41"
         style="fill:#6b5b4f;fill-opacity:1;fill-rule:nonzero;stroke:none;stroke-width:0.1"
         id="path110"
         inkscape:connector-curvature="0" /><path
         d="m 273.392,390.97 c 7.164,-7.858 16.218,-13.686 24.872,-19.864 2.215,-1.581 4.429,-3.207 6.235,-5.243 4.273,-4.815 5.874,-11.86 4.103,-18.048 -0.736,-2.575 -2.047,-5.029 -4.023,-6.836 -1.976,-1.807 -4.656,-2.916 -7.326,-2.709 -1.784,0.138 -3.474,0.837 -5.079,1.627 -1.671,0.823 -3.307,1.771 -4.636,3.076 -1.549,1.521 -2.614,3.463 -3.506,5.442 -2.173,4.824 -3.441,10.015 -5.579,14.855 -1.663,3.762 -3.989,7.415 -7.194,9.907 -3.204,2.491 -5.529,6.013 -6.22,10.013 -0.707,4.089 0.419,8.176 7.746,8.166 l 0.607,-0.386"
         style="fill:#6b5b4f;fill-opacity:1;fill-rule:nonzero;stroke:none;stroke-width:0.1"
         id="path112"
         inkscape:connector-curvature="0" /><path
         d="m 271.84,354.322 c 1.991,4.747 3.025,10.038 2.849,15.59 -0.624,19.596 -16.055,29.588 -34.496,29.001 -18.44,-0.587 -32.907,-11.529 -32.284,-31.126 0.162,-5.082 1.328,-9.879 3.279,-14.192 -3.711,-4.609 -5.79,-10.082 -5.605,-15.897 0.495,-15.548 16.827,-26.163 36.667,-25.532 19.84,0.631 35.676,12.27 35.181,27.818 -0.168,5.305 -2.201,10.206 -5.591,14.338"
         style="fill:#f5ddc7;fill-opacity:1;fill-rule:nonzero;stroke:none;stroke-width:0.1"
         id="path114"
         inkscape:connector-curvature="0" /><path
         d="m 250.828,389.325 c 2.005,-6.144 0.951,-12.816 -0.121,-19.19 -0.62,-3.685 -1.24,-7.371 -1.86,-11.056 -0.645,-3.831 -1.271,-7.875 0.097,-11.511 0.979,-2.601 2.977,-4.804 5.471,-6.031 1.923,-0.946 4.076,-1.313 6.209,-1.516 3.657,-0.347 7.562,-0.182 10.675,1.768 2.383,1.493 4.068,4.307 4.002,7.023 -0.902,1.95 -2.057,3.799 -3.461,5.51 1.991,4.747 3.025,10.038 2.849,15.59 -0.286,8.99 -3.694,15.952 -9.074,20.805 -2.381,2.061 -5.179,3.818 -8.125,5.162 -3.784,1.635 -8.012,2.618 -12.497,2.938 l -0.764,0.037 c 2.757,-2.38 5.47,-6.066 6.599,-9.529"
         style="fill:#94806d;fill-opacity:1;fill-rule:nonzero;stroke:none;stroke-width:0.1"
         id="path116"
         inkscape:connector-curvature="0" /><path
         d="m 211.365,341.914 c 3.113,-1.95 7.018,-2.115 10.675,-1.768 2.133,0.203 4.287,0.57 6.209,1.516 2.494,1.227 4.492,3.43 5.471,6.031 1.368,3.636 0.742,7.68 0.097,11.511 -0.62,3.685 -1.24,7.371 -1.86,11.056 -1.072,6.374 -2.126,13.046 -0.121,19.19 1.104,3.386 3.722,6.975 6.414,9.358 -13.071,-0.949 -23.872,-7.242 -28.254,-18.241 -0.782,-2.087 -1.351,-4.248 -1.723,-6.452 -0.302,-1.998 -0.435,-4.104 -0.364,-6.327 0.162,-5.083 1.328,-9.88 3.279,-14.193 -1.534,-1.905 -2.77,-3.964 -3.701,-6.127 0.437,-2.218 1.924,-4.33 3.878,-5.554"
         style="fill:#94806d;fill-opacity:1;fill-rule:nonzero;stroke:none;stroke-width:0.1"
         id="path118"
         inkscape:connector-curvature="0" /><path
         d="m 260.167,329.884 c 0,-10.199 -8.266,-16.718 -18.667,-16.718 -10.401,0 -19,6.519 -19,16.718 0,10.2 8.39,12.845 18.792,12.845 10.401,0 18.875,-2.645 18.875,-12.845"
         style="fill:#fde6d5;fill-opacity:1;fill-rule:nonzero;stroke:none;stroke-width:0.1"
         id="path120"
         inkscape:connector-curvature="0" /><path
         d="m 253.976,354.81 c 0.35,-2.287 2.488,-3.857 4.775,-3.507 2.287,0.351 3.857,2.488 3.507,4.775 -0.35,2.287 -2.488,3.858 -4.775,3.507 -2.287,-0.35 -3.857,-2.488 -3.507,-4.775"
         style="fill:#464648;fill-opacity:1;fill-rule:nonzero;stroke:none;stroke-width:0.1"
         id="path122"
         inkscape:connector-curvature="0" /><path
         d="m 220.938,354.642 c 0.35,-2.287 2.488,-3.857 4.775,-3.507 2.287,0.35 3.857,2.488 3.507,4.775 -0.35,2.287 -2.488,3.857 -4.775,3.507 -2.287,-0.35 -3.857,-2.488 -3.507,-4.775"
         style="fill:#464648;fill-opacity:1;fill-rule:nonzero;stroke:none;stroke-width:0.1"
         id="path124"
         inkscape:connector-curvature="0" /><path
         d="m 232.39,339.63 c 0.015,-3.005 4.1,-7.839 9.108,-7.814 5.008,0.025 9.044,4.899 9.029,7.904 -0.015,3.005 -4.087,5.421 -9.096,5.396 -5.008,-0.025 -9.056,-2.481 -9.041,-5.486"
         style="fill:#464648;fill-opacity:1;fill-rule:nonzero;stroke:none;stroke-width:0.1"
         id="path126"
         inkscape:connector-curvature="0" /><path
         d="m 249,319.722 c -1.813,-0.289 -3.909,1.182 -5.226,2.847 -0.997,1.261 -1.586,2.894 -1.941,4.619 v 5.395 h -1 v -5.436 c -0.278,-1.708 -0.791,-3.33 -1.717,-4.605 -1.239,-1.707 -3.267,-3.245 -5.092,-3.017 -0.435,0.054 -0.411,-0.85 0.02,-0.905 2.016,-0.252 4.203,1.42 5.567,3.29 0.882,1.21 1.42,2.698 1.745,4.287 0.397,-1.596 1.007,-3.083 1.953,-4.276 1.448,-1.824 3.709,-3.422 5.711,-3.104 0.429,0.069 0.412,0.974 -0.02,0.905"
         style="fill:#464648;fill-opacity:1;fill-rule:nonzero;stroke:none;stroke-width:0.1"
         id="path128"
         inkscape:connector-curvature="0" /><path
         d="m 478.542,69.916 c 0,-4.832 -28.43,-8.75 -63.5,-8.75 -35.07,0 -63.5,3.918 -63.5,8.75 0,4.8328 28.43,8.75 63.5,8.75 35.07,0 63.5,-3.9172 63.5,-8.75"
         style="fill:#b1d2b9;fill-opacity:1;fill-rule:nonzero;stroke:none;stroke-width:0.1"
         id="path130"
         inkscape:connector-curvature="0" /><path
         d="m 439.756,91.0969 c 4.144,0.298 12.492,-1.6117 16.528,-2.4918 4.706,-1.027 8.854,-3.6102 12.131,-6.7969 1.07,-1.041 2.055,-2.1461 2.972,-3.2953 1.777,-2.2258 -0.622,-5.216 -3.525,-4.357 -8.367,2.4773 -17.336,3.3461 -26.109,2.4773 l -1.997,14.4637"
         style="fill:#6b5b4f;fill-opacity:1;fill-rule:nonzero;stroke:none;stroke-width:0.1"
         id="path132"
         inkscape:connector-curvature="0" /><path
         d="m 373.873,87.7031 c 2.241,9.052 1.484,18.5939 1.532,27.9599 0.048,9.366 1.102,19.259 6.289,26.779 l 52.033,-0.625 c 0.534,-5.011 2.811,-9.616 5.485,-13.75 2.674,-4.133 5.783,-7.933 8.311,-12.172 4.993,-8.373 7.577,-18.863 5.129,-28.4739 -2.142,-8.4109 -8.737,-15.6809 -16.54,-17.266 -9.365,-2.3481 -19.1,0.8109 -28.741,1.2168 -1.994,0.084 -3.984,0.0531 -5.966,-0.1719 -3.373,-0.384 -6.667,-1.318 -9.975,-2.125 -4.594,-1.1199 -9.671,-1.9328 -13.793,0.5148 l -0.03,0.0204 c -3.185,1.9078 -5.306,5.7257 -5.361,9.6589 -0.04,2.8809 0.937,5.6489 1.627,8.434"
         style="fill:#e2c9b4;fill-opacity:1;fill-rule:nonzero;stroke:none;stroke-width:0.1"
         id="path134"
         inkscape:connector-curvature="0" /><path
         d="m 425.167,97.916 c 0,0 28.75,3.75 22.625,16.875 0,0 6.625,-6.25 1.875,-13.5 -4.75,-7.25 -24.5,-3.375 -24.5,-3.375"
         style="fill:#d9bca4;fill-opacity:1;fill-rule:nonzero;stroke:none;stroke-width:0.1"
         id="path136"
         inkscape:connector-curvature="0" /><path
         d="m 423.833,107.666 c 0,0 22.959,3.5 17.542,16.709 0,0 6.625,-6.25 1.875,-13.5 -4.75,-7.25 -19.417,-3.209 -19.417,-3.209"
         style="fill:#d9bca4;fill-opacity:1;fill-rule:nonzero;stroke:none;stroke-width:0.1"
         id="path138"
         inkscape:connector-curvature="0" /><path
         d="m 426.224,89.559 c 0,0 27.568,-1.518 26.38,12.607 0,0 4.063,-8 -1.747,-14.814 -5.624,-6.5961 -24.633,2.207 -24.633,2.207"
         style="fill:#d9bca4;fill-opacity:1;fill-rule:nonzero;stroke:none;stroke-width:0.1"
         id="path140"
         inkscape:connector-curvature="0" /><path
         d="m 375.917,125.824 c 0,0 32.583,-14.969 61.583,4.508 l -2.25,5.501 -58,-2.344 -1.333,-7.665"
         style="fill:#71cfce;fill-opacity:1;fill-rule:nonzero;stroke:none;stroke-width:0.1"
         id="path142"
         inkscape:connector-curvature="0" /><path
         d="m 405.023,120.737 c 0.408,0.307 0.695,0.795 0.738,1.373 0.076,1.025 -0.63,1.924 -1.577,2.006 -0.842,0.074 -1.588,-0.522 -1.798,-1.375 l -7.189,0.628 c -0.081,0.879 -0.729,1.597 -1.571,1.671 -0.947,0.083 -1.778,-0.681 -1.854,-1.707 -0.043,-0.578 0.168,-1.109 0.525,-1.483 -0.408,-0.307 -0.695,-0.795 -0.739,-1.373 -0.076,-1.025 0.63,-1.923 1.577,-2.006 0.873,-0.077 1.638,0.568 1.815,1.47 l 7.171,-0.627 c 0.041,-0.921 0.7,-1.69 1.572,-1.766 0.948,-0.083 1.778,0.681 1.855,1.706 0.043,0.578 -0.168,1.109 -0.525,1.483"
         style="fill:#ffffff;fill-opacity:1;fill-rule:nonzero;stroke:none;stroke-width:0.1"
         id="path144"
         inkscape:connector-curvature="0" /><path
         d="m 375.092,69.4941 -0.03,0.0168 c -3.162,1.575 -5.22,4.6262 -5.201,7.7161 0.014,2.2652 1.046,4.416 1.791,6.5871 2.421,7.0578 1.84,14.5718 2.064,21.9289 0.191,6.285 1.134,12.851 4.74,18.236 0.965,1.441 2.903,2.318 4.992,2.288 2.109,-0.03 4.045,-0.981 4.977,-2.47 3.514,-5.618 4.16,-12.357 4.049,-18.764 -0.127,-7.3588 -1.067,-14.8369 1.014,-22.0029 0.64,-2.2039 1.569,-4.402 1.474,-6.6649 -0.128,-3.0882 -2.33,-6.0371 -5.563,-7.4593 l -0.031,-0.0149 -0.259,-0.1019 -0.179,-0.0301 c -4.633,-0.7699 -9.746,-1.286 -13.838,0.7351"
         style="fill:#e8d8c2;fill-opacity:1;fill-rule:nonzero;stroke:none;stroke-width:0.1"
         id="path146"
         inkscape:connector-curvature="0" /><path
         d="m 404.221,66.498 -0.03,0.0161 c -3.162,1.575 -5.22,4.6261 -5.201,7.7168 0.014,2.264 1.047,4.4152 1.792,6.5871 2.421,7.0582 1.839,14.5718 2.063,21.929 0.192,6.285 1.134,12.85 4.74,18.236 0.965,1.441 2.903,2.318 4.992,2.288 2.109,-0.031 4.046,-0.981 4.977,-2.471 3.514,-5.617 4.161,-12.356 4.05,-18.764 -0.128,-7.359 -1.068,-14.8368 1.013,-22.002 0.64,-2.2051 1.569,-4.402 1.475,-6.6649 -0.129,-3.0882 -2.33,-6.0371 -5.563,-7.4589 l -0.031,-0.0153 -0.259,-0.1019 -0.179,-0.0301 c -4.633,-0.7699 -9.746,-1.2867 -13.839,0.7351"
         style="fill:#e8d8c2;fill-opacity:1;fill-rule:nonzero;stroke:none;stroke-width:0.1"
         id="path148"
         inkscape:connector-curvature="0" /><path
         d="m 404.542,66.4789 c 0,0 2.571,2.7762 2.447,6.4371 0,0 1.327,-5.3219 0.496,-7.4238 0,0 -1.943,0.2058 -2.943,0.9867"
         style="fill:#d9bca4;fill-opacity:1;fill-rule:nonzero;stroke:none;stroke-width:0.1"
         id="path150"
         inkscape:connector-curvature="0" /><path
         d="m 413.746,65.2672 c 0,0 1.787,4.216 1.411,6.7789 0,0 1.545,-4.093 1.188,-6.5711 0,0 -1.531,-0.477 -2.599,-0.2078"
         style="fill:#d9bca4;fill-opacity:1;fill-rule:nonzero;stroke:none;stroke-width:0.1"
         id="path152"
         inkscape:connector-curvature="0" /><path
         d="m 385.71,68.6109 c 0,0 -1.999,3.2133 -1.183,6.784 0,0 -2.312,-4.9738 -1.894,-7.1949 0,0 1.947,-0.1668 3.077,0.4109"
         style="fill:#d9bca4;fill-opacity:1;fill-rule:nonzero;stroke:none;stroke-width:0.1"
         id="path154"
         inkscape:connector-curvature="0" /><path
         d="m 376.373,69.3039 c 0,0 -0.489,4.5531 0.613,6.8973 0,0 -2.665,-3.4703 -3.041,-5.9453 0,0 1.328,-0.9 2.428,-0.952"
         style="fill:#d9bca4;fill-opacity:1;fill-rule:nonzero;stroke:none;stroke-width:0.1"
         id="path156"
         inkscape:connector-curvature="0" /><path
         d="m 359.053,185.266 5.319,-7.212 26.646,25.31 c 0,0 -5.999,4.442 -7.035,4.042"
         style="fill:#594a42;fill-opacity:1;fill-rule:nonzero;stroke:none;stroke-width:0.1"
         id="path158"
         inkscape:connector-curvature="0" /><path
         d="m 451.05,179.951 -6.366,-6.308 -22.435,29.108 c 0,0 6.611,3.466 7.573,2.911"
         style="fill:#594a42;fill-opacity:1;fill-rule:nonzero;stroke:none;stroke-width:0.1"
         id="path160"
         inkscape:connector-curvature="0" /><path
         d="m 359.052,163.143 c -0.224,-24.98 20.109,-37.736 44.72,-37.957 24.612,-0.22 44.183,12.179 44.406,37.159 0.224,24.981 -21.057,45.332 -41.672,45.266 -21.948,-0.07 -47.231,-19.488 -47.454,-44.468"
         style="fill:#e8d8c2;fill-opacity:1;fill-rule:nonzero;stroke:none;stroke-width:0.1"
         id="path162"
         inkscape:connector-curvature="0" /><path
         d="m 389.2,178.683 c 3.039,-0.346 5.614,-2.304 8.569,-2.992 2.2,-0.513 4.508,-0.61 6.749,-0.408 5.806,0.523 11.382,3.568 17.203,1.57 1.571,-0.539 2.246,1.947 0.685,2.483 -5.295,1.817 -10.07,-0.087 -15.325,-1.09 -3.828,-0.731 -7.467,-0.662 -11.126,0.759 -2.363,0.918 -4.22,1.964 -6.755,2.253 -1.643,0.187 -1.63,-2.389 0,-2.575"
         style="fill:#e2c9b4;fill-opacity:1;fill-rule:nonzero;stroke:none;stroke-width:0.1"
         id="path164"
         inkscape:connector-curvature="0" /><path
         d="m 394.692,186.674 c 2.146,-0.244 3.965,-1.627 6.052,-2.114 1.555,-0.362 3.185,-0.43 4.768,-0.288 4.101,0.37 8.039,2.52 12.152,1.109 1.109,-0.381 1.586,1.376 0.483,1.754 -3.74,1.284 -7.113,-0.061 -10.825,-0.77 -2.704,-0.516 -5.274,-0.468 -7.859,0.537 -1.669,0.648 -2.981,1.387 -4.771,1.591 -1.161,0.132 -1.152,-1.688 0,-1.819"
         style="fill:#e2c9b4;fill-opacity:1;fill-rule:nonzero;stroke:none;stroke-width:0.1"
         id="path166"
         inkscape:connector-curvature="0" /><path
         d="m 396.826,194.791 c 1.814,-0.207 3.35,-1.375 5.114,-1.786 1.313,-0.306 2.69,-0.364 4.027,-0.243 3.465,0.312 6.792,2.129 10.267,0.936 0.937,-0.321 1.34,1.162 0.408,1.482 -3.16,1.085 -6.009,-0.051 -9.145,-0.65 -2.285,-0.437 -4.456,-0.395 -6.64,0.453 -1.41,0.548 -2.518,1.172 -4.031,1.344 -0.981,0.112 -0.973,-1.426 0,-1.536"
         style="fill:#e2c9b4;fill-opacity:1;fill-rule:nonzero;stroke:none;stroke-width:0.1"
         id="path168"
         inkscape:connector-curvature="0" /><path
         d="m 428.242,139.498 c -0.814,-9.457 -14.631,-13 -29.507,-11.72 -14.875,1.281 -26.226,7.053 -25.412,16.509 0.814,9.457 13.554,15.525 28.615,14.396 16.506,-1.238 27.118,-9.728 26.304,-19.185"
         style="fill:#94806d;fill-opacity:1;fill-rule:nonzero;stroke:none;stroke-width:0.1"
         id="path170"
         inkscape:connector-curvature="0" /><path
         d="m 433.816,161.677 c 0,-6.472 -5.247,-11.719 -11.719,-11.719 -6.472,0 -11.719,5.247 -11.719,11.719 0,6.472 5.247,11.719 11.719,11.719 6.472,0 11.719,-5.247 11.719,-11.719"
         style="fill:#94806d;fill-opacity:1;fill-rule:nonzero;stroke:none;stroke-width:0.1"
         id="path172"
         inkscape:connector-curvature="0" /><path
         d="m 393.288,163.864 c 0,-6.472 -5.246,-11.719 -11.719,-11.719 -6.472,0 -11.718,5.247 -11.718,11.719 0,6.472 5.246,11.719 11.718,11.719 6.473,0 11.719,-5.247 11.719,-11.719"
         style="fill:#94806d;fill-opacity:1;fill-rule:nonzero;stroke:none;stroke-width:0.1"
         id="path174"
         inkscape:connector-curvature="0" /><path
         d="m 383.983,207.406 c 0,0 11.335,-24.596 2.133,-28.536 -9.202,-3.94 -23.562,3.169 -23.562,3.169 0,0 -4.271,0.813 -3.28,4.355 0.99,3.543 4.837,21.542 24.709,21.012"
         style="fill:#6b5b4f;fill-opacity:1;fill-rule:nonzero;stroke:none;stroke-width:0.1"
         id="path176"
         inkscape:connector-curvature="0" /><path
         d="m 429.822,205.662 c 0,0 -14.983,-22.559 -6.497,-27.868 8.486,-5.309 23.769,-0.493 23.769,-0.493 0,0 4.345,0.145 3.911,3.799 -0.434,3.653 -1.466,22.029 -21.183,24.562"
         style="fill:#6b5b4f;fill-opacity:1;fill-rule:nonzero;stroke:none;stroke-width:0.1"
         id="path178"
         inkscape:connector-curvature="0" /><path
         d="m 417.26,161.117 c 0,-2.389 1.936,-4.325 4.325,-4.325 2.388,0 4.324,1.936 4.324,4.325 0,2.388 -1.936,4.325 -4.324,4.325 -2.389,0 -4.325,-1.937 -4.325,-4.325"
         style="fill:#2e2d2d;fill-opacity:1;fill-rule:nonzero;stroke:none;stroke-width:0.1"
         id="path180"
         inkscape:connector-curvature="0" /><path
         d="m 378.173,163.391 c 0,-2.388 1.936,-4.325 4.325,-4.325 2.389,0 4.325,1.937 4.325,4.325 0,2.389 -1.936,4.325 -4.325,4.325 -2.389,0 -4.325,-1.936 -4.325,-4.325"
         style="fill:#2e2d2d;fill-opacity:1;fill-rule:nonzero;stroke:none;stroke-width:0.1"
         id="path182"
         inkscape:connector-curvature="0" /><path
         d="m 392.656,157.826 c -0.321,-2.916 3.095,-8.058 7.949,-8.593 4.853,-0.534 9.306,3.742 9.627,6.658 0.321,2.915 -3.353,5.712 -8.206,6.246 -4.854,0.534 -9.049,-1.396 -9.37,-4.311"
         style="fill:#2e2d2d;fill-opacity:1;fill-rule:nonzero;stroke:none;stroke-width:0.1"
         id="path184"
         inkscape:connector-curvature="0" /><path
         d="m 409.756,136.075 c -2.467,-0.116 -5.175,1.644 -6.815,3.528 -1.243,1.427 -1.907,3.202 -2.245,5.049 l 0.434,5.662 -1.348,0.103 -0.438,-5.705 c -0.513,-1.763 -1.335,-3.414 -2.685,-4.656 -1.809,-1.663 -4.666,-3.068 -7.108,-2.64 -0.582,0.103 -0.622,-0.85 -0.045,-0.951 2.697,-0.473 5.78,1.056 7.769,2.877 1.286,1.179 2.131,2.685 2.698,4.319 0.407,-1.717 1.108,-3.34 2.288,-4.69 1.805,-2.063 4.724,-3.975 7.45,-3.848 0.583,0.028 0.633,0.979 0.045,0.952"
         style="fill:#2e2d2d;fill-opacity:1;fill-rule:nonzero;stroke:none;stroke-width:0.1"
         id="path186"
         inkscape:connector-curvature="0" /><path
         d="m 480.208,256.75 c 0,-4.833 -28.43,-8.75 -63.5,-8.75 -35.07,0 -63.5,3.917 -63.5,8.75 0,4.832 28.43,8.75 63.5,8.75 35.07,0 63.5,-3.918 63.5,-8.75"
         style="fill:#b1d2b9;fill-opacity:1;fill-rule:nonzero;stroke:none;stroke-width:0.1"
         id="path188"
         inkscape:connector-curvature="0" /><path
         d="m 430.292,275.75 c 0,0 -2.875,-13.125 2.375,-16.625 5.25,-3.5 11,-0.25 11,-0.25 l -0.125,18 -13.75,-1.25 0.5,0.125"
         style="fill:#e9e8e7;fill-opacity:1;fill-rule:nonzero;stroke:none;stroke-width:0.1"
         id="path190"
         inkscape:connector-curvature="0" /><path
         d="m 404.631,275.833 c 0,0 2.875,-13.125 -2.375,-16.625 -5.25,-3.5 -11,-0.25 -11,-0.25 l 0.125,18 13.75,-1.25 -0.5,0.125"
         style="fill:#e9e8e7;fill-opacity:1;fill-rule:nonzero;stroke:none;stroke-width:0.1"
         id="path192"
         inkscape:connector-curvature="0" /><path
         d="m 369.051,330.211 c -6.972,-12.549 -6.769,-28.781 0.513,-41.152 1.756,-2.982 3.903,-5.78 5.059,-9.042 1.644,-4.634 1.133,-9.731 1.922,-14.584 0.789,-4.854 3.666,-10.084 8.528,-10.821 3.871,-0.588 7.659,2.016 9.696,5.361 2.037,3.345 2.701,7.319 3.382,11.175 0.104,0.587 0.249,1.239 0.744,1.57 0.281,0.188 0.629,0.238 0.964,0.283 12.02,1.6 24.181,2.145 36.296,1.628 0.552,-0.023 1.131,-0.057 1.599,-0.351 1.027,-0.645 1.004,-2.121 0.875,-3.327 -0.31,-2.874 -0.532,-5.817 0.149,-8.627 0.681,-2.809 2.411,-5.506 5.059,-6.665 3.269,-1.431 7.231,-0.189 9.887,2.194 2.655,2.383 4.25,5.709 5.605,9.009 4.1,9.986 6.618,20.536 9.12,31.036 0.739,3.101 1.483,6.248 1.369,9.434 -0.11,3.083 -1.021,6.083 -2.13,8.961 -0.99,2.568 -2.166,5.108 -3.948,7.204 -3.559,4.185 -9.07,6.106 -14.397,7.447 -4.741,1.193 -9.562,2.073 -14.419,2.631 -7.603,0.875 -15.651,1.07 -22.19,5.047 l -43.683,-8.411"
         style="fill:#fafafa;fill-opacity:1;fill-rule:nonzero;stroke:none;stroke-width:0.1"
         id="path194"
         inkscape:connector-curvature="0" /><path
         d="m 481.511,330.554 c 0.035,2.762 -0.239,5.511 -0.701,8.235 -0.23,1.358 -1.383,2.09 -2.53,2.065 -0.191,0.031 -0.396,-0.013 -0.582,-0.08 l -0.012,-0.003 -0.006,-0.003 c -0.558,-0.149 -1.07,-0.496 -1.428,-1.055 l -0.127,-0.205 c -3.141,-6.058 -7.211,-11.631 -12.011,-16.481 -0.124,0.157 -0.244,0.317 -0.374,0.47 -3.559,4.185 -9.07,6.106 -14.397,7.447 -4.741,1.193 -9.562,2.073 -14.419,2.631 -5.124,0.59 -10.448,0.875 -15.378,2.213 -2.385,0.647 -4.68,1.537 -6.812,2.834 l -43.683,-8.411 c -5.386,-9.695 -6.471,-21.581 -3.337,-32.193 0.923,-3.125 2.194,-6.145 3.85,-8.959 0.727,-1.234 1.518,-2.437 2.281,-3.654 9.149,-4.709 19.065,-5.196 28.659,-1.869 4.973,1.725 9.719,4.521 14.616,6.625 5.219,2.241 10.611,3.694 16.053,4.325 7.388,0.856 15.162,0.074 21.595,-5.055 3.849,-3.069 7.034,-7.543 10.51,-11.377 1.994,6.531 3.587,13.197 5.171,19.844 0.576,2.418 1.15,4.865 1.323,7.335 2.811,3.424 5.706,7.744 7.416,10.249 2.989,4.379 4.257,9.77 4.323,15.072"
         style="fill:#464648;fill-opacity:1;fill-rule:nonzero;stroke:none;stroke-width:0.1"
         id="path196"
         inkscape:connector-curvature="0" /><path
         d="m 441.702,257.091 c 0,0 3.007,2.297 3.51,5.925 0,0 0.399,-5.47 -0.778,-7.399 0,0 -1.88,0.534 -2.732,1.474"
         style="fill:#e9e8e7;fill-opacity:1;fill-rule:nonzero;stroke:none;stroke-width:0.1"
         id="path198"
         inkscape:connector-curvature="0" /><path
         d="m 447.17,255.324 c 0,0 1.717,4.245 1.299,6.802 0,0 1.613,-4.067 1.297,-6.551 0,0 -1.523,-0.502 -2.596,-0.251"
         style="fill:#e9e8e7;fill-opacity:1;fill-rule:nonzero;stroke:none;stroke-width:0.1"
         id="path200"
         inkscape:connector-curvature="0" /><path
         d="m 380.952,256.424 c 0,0 3.007,2.297 3.51,5.926 0,0 0.399,-5.471 -0.778,-7.4 0,0 -1.88,0.534 -2.732,1.474"
         style="fill:#e9e8e7;fill-opacity:1;fill-rule:nonzero;stroke:none;stroke-width:0.1"
         id="path202"
         inkscape:connector-curvature="0" /><path
         d="m 386.42,254.657 c 0,0 1.717,4.246 1.299,6.802 0,0 1.613,-4.067 1.297,-6.55 0,0 -1.523,-0.503 -2.596,-0.252"
         style="fill:#e9e8e7;fill-opacity:1;fill-rule:nonzero;stroke:none;stroke-width:0.1"
         id="path204"
         inkscape:connector-curvature="0" /><path
         d="m 433.326,332.97 c 0,0 -5.184,1.825 -3.381,6.247 1.804,4.421 5.822,9.542 5.822,9.542 0,0 7.432,-6.651 0.648,-16.322 l -3.089,0.533"
         style="fill:#53bdb4;fill-opacity:1;fill-rule:nonzero;stroke:none;stroke-width:0.1"
         id="path206"
         inkscape:connector-curvature="0" /><path
         d="m 433.75,335.175 c 0,0 -2.917,4.658 1.25,6.991 4.167,2.334 10.5,3.834 10.5,3.834 0,0 1.667,-9.834 -9.667,-13.167 l -2.083,2.342"
         style="fill:#5fc8c2;fill-opacity:1;fill-rule:nonzero;stroke:none;stroke-width:0.1"
         id="path208"
         inkscape:connector-curvature="0" /><path
         d="m 436.695,328.891 c -4.71,-8.302 -23.621,-34.816 -41.854,-40.875 -0.745,-0.248 -1.546,-0.211 -2.283,0.059 -4.724,1.732 -22.756,8.766 -29.089,17.425 0,0 -2.763,3.5 0,6 2.454,2.22 54.234,21.436 65.992,25.416 1.402,0.475 5.125,-0.546 6.095,-1.687 l 2.031,-1.257 c 1.033,-1.216 -0.101,-3.687 -0.892,-5.081"
         style="fill:#71cfce;fill-opacity:1;fill-rule:nonzero;stroke:none;stroke-width:0.1"
         id="path210"
         inkscape:connector-curvature="0" /><path
         d="m 369.076,385.314 c 0,0 -4.094,14.076 -26.191,6.724 0,0 -4.766,-19.294 11.901,-22.898 0,0 16.336,6.758 14.29,16.174"
         style="fill:#414042;fill-opacity:1;fill-rule:nonzero;stroke:none;stroke-width:0.1"
         id="path212"
         inkscape:connector-curvature="0" /><path
         d="m 365.849,382.935 c 0,0 -5.124,10.177 -18.899,4.627 0,0 -0.677,-12.935 10.52,-15.782 0,0 6.925,3.387 8.379,11.155"
         style="fill:#f8a6b3;fill-opacity:1;fill-rule:nonzero;stroke:none;stroke-width:0.1"
         id="path214"
         inkscape:connector-curvature="0" /><path
         d="m 392.625,388.514 c 0,0 -1.36,14.597 21.892,15.872 0,0 11.518,-16.196 -2.661,-25.669 0,0 -17.676,0.288 -19.231,9.797"
         style="fill:#414042;fill-opacity:1;fill-rule:nonzero;stroke:none;stroke-width:0.1"
         id="path216"
         inkscape:connector-curvature="0" /><path
         d="m 396.5,387.487 c 0,0 1.029,11.347 15.88,11.243 0,0 5.379,-11.783 -3.99,-18.543 0,0 -7.685,0.608 -11.89,7.3"
         style="fill:#f8a6b3;fill-opacity:1;fill-rule:nonzero;stroke:none;stroke-width:0.1"
         id="path218"
         inkscape:connector-curvature="0" /><path
         d="m 433.253,336.175 c -0.441,3.995 -2.686,7.53 -6.266,10.435 l -8.005,-1.143 c -2.127,20.05 -18.792,32.793 -33.315,32.866 -14.529,0.073 -29.423,-15.237 -29.251,-37.517 0.011,-1.469 0.087,-2.884 0.216,-4.254 l -7.365,-1.052 c -1.939,-3.137 -3.636,-6.786 -3.271,-10.094 1.358,-12.286 19.703,-20.263 41.889,-18.727 4.418,0.103 8.673,0.729 12.646,1.883 19.872,4.592 33.997,16.068 32.722,27.603"
         style="fill:#fafafa;fill-opacity:1;fill-rule:nonzero;stroke:none;stroke-width:0.1"
         id="path220"
         inkscape:connector-curvature="0" /><path
         d="m 425,346.327 1.472,0.21 c -0.712,24.562 -22.63,43.556 -41.688,43.642 -18.109,0.081 -36.789,-20.254 -36.574,-45.234 0.029,-3.406 0.385,-6.569 1.014,-9.507 l 0.036,0.06 -0.07,-0.256 c 5.711,-3.675 7.47,1.096 7.47,1.096 l -0.093,0.215 0.065,0.009 c -0.129,1.37 -0.205,2.785 -0.216,4.254 -0.074,9.554 2.627,17.819 6.877,24.146 l -0.375,-0.667 0.418,0.162 c 4.112,1.994 7.237,0.994 9.738,-0.678 1.211,-0.81 2.147,-1.916 3.023,-3.035 4.888,-6.235 7.601,-14.63 9.62,-22.099 l 3.147,-0.854 -0.162,1.353 2.46,1.321 c 0.028,7.699 0.492,16.449 3.625,23.583 0.562,1.279 1.185,2.56 2.151,3.613 1.9,2.071 4.509,3.67 8.643,2.933 6.915,-5.709 12.232,-14.33 13.391,-25.048 l -0.035,-0.005 0.043,-0.058 0.002,-0.016 0.009,0.002 c 0.375,-0.496 2.931,-3.465 7.483,1.049 L 425,346.327"
         style="fill:#464648;fill-opacity:1;fill-rule:nonzero;stroke:none;stroke-width:0.1"
         id="path222"
         inkscape:connector-curvature="0" /><path
         d="m 408.631,347.784 c -0.282,-2.372 -2.434,-4.066 -4.805,-3.784 -2.372,0.282 -4.067,2.433 -3.785,4.805 0.282,2.372 2.433,4.066 4.805,3.784 2.372,-0.282 4.066,-2.433 3.785,-4.805"
         style="fill:#2e2d2d;fill-opacity:1;fill-rule:nonzero;stroke:none;stroke-width:0.1"
         id="path224"
         inkscape:connector-curvature="0" /><path
         d="m 373.547,343.243 c -0.282,-2.372 -2.433,-4.067 -4.805,-3.785 -2.372,0.282 -4.066,2.433 -3.784,4.805 0.281,2.372 2.433,4.066 4.805,3.785 2.372,-0.282 4.066,-2.433 3.784,-4.805"
         style="fill:#2e2d2d;fill-opacity:1;fill-rule:nonzero;stroke:none;stroke-width:0.1"
         id="path226"
         inkscape:connector-curvature="0" /><path
         d="m 398.415,322.188 c -1.768,-0.493 -4.018,0.729 -5.516,2.232 -1.134,1.14 -1.906,2.695 -2.455,4.369 l -0.615,5.359 -0.993,-0.114 0.619,-5.4 c -0.082,-1.728 -0.406,-3.399 -1.18,-4.771 -1.037,-1.837 -2.877,-3.597 -4.716,-3.578 -0.438,0.005 -0.311,-0.892 0.124,-0.896 2.031,-0.021 4.013,1.889 5.155,3.903 0.738,1.303 1.103,2.842 1.245,4.458 0.577,-1.541 1.352,-2.949 2.428,-4.026 1.646,-1.647 4.074,-2.977 6.028,-2.432 0.418,0.116 0.298,1.014 -0.124,0.896"
         style="fill:#2e2d2d;fill-opacity:1;fill-rule:nonzero;stroke:none;stroke-width:0.1"
         id="path228"
         inkscape:connector-curvature="0" /><path
         d="m 396.173,337.497 c 0.247,-2.413 -2.615,-6.643 -6.635,-7.053 -4.021,-0.41 -7.678,3.154 -7.924,5.566 -0.247,2.412 2.813,4.701 6.834,5.111 4.02,0.411 7.479,-1.212 7.725,-3.624"
         style="fill:#2e2d2d;fill-opacity:1;fill-rule:nonzero;stroke:none;stroke-width:0.1"
         id="path230"
         inkscape:connector-curvature="0" /><path
         d="m 153.667,67.084 c 0,-4.6629 -27.43,-8.4418 -61.265,-8.4418 -33.836,0 -61.2649,3.7789 -61.2649,8.4418 0,4.6621 27.4289,8.4422 61.2649,8.4422 33.835,0 61.265,-3.7801 61.265,-8.4422"
         style="fill:#b1d2b9;fill-opacity:1;fill-rule:nonzero;stroke:none;stroke-width:0.1"
         id="path232"
         inkscape:connector-curvature="0" /><path
         d="m 55.5531,141.38 c -4.0402,2.708 -13.7906,5.304 -18.4761,6.608 -5.4637,1.521 -11.3586,0.95 -16.7508,-0.807 -1.7617,-0.574 -3.4766,-1.269 -5.1516,-2.054 -3.243,-1.52 -2.7148,-6.295 0.8016,-6.976 10.1336,-1.961 19.8496,-6.098 28.248,-12.101 l 11.3289,15.33"
         style="fill:#b1b1b0;fill-opacity:1;fill-rule:nonzero;stroke:none;stroke-width:0.1"
         id="path234"
         inkscape:connector-curvature="0" /><path
         d="m 106.225,85.3191 c 0,0 -3.075,-14.0371 2.54,-17.78 5.615,-3.7442 11.765,-0.268 11.765,-0.268 l -0.134,19.2519 -14.706,-1.3371 0.535,0.1332"
         style="fill:#b1b1b0;fill-opacity:1;fill-rule:nonzero;stroke:none;stroke-width:0.1"
         id="path236"
         inkscape:connector-curvature="0" /><path
         d="m 78.7809,85.409 c 0,0 3.075,-14.0379 -2.5403,-17.7809 C 70.6258,63.884 64.4762,67.3602 64.4762,67.3602 l 0.1336,19.2519 14.7058,-1.3371 -0.5347,0.134"
         style="fill:#b1b1b0;fill-opacity:1;fill-rule:nonzero;stroke:none;stroke-width:0.1"
         id="path238"
         inkscape:connector-curvature="0" /><path
         d="m 143.179,143.967 c 7.456,-13.421 7.24,-30.781 -0.549,-44.0119 -1.878,-3.1903 -4.174,-6.1821 -5.411,-9.6699 -1.758,-4.9571 -1.212,-10.4082 -2.055,-15.5993 -0.844,-5.191 -3.921,-10.7839 -9.121,-11.573 -4.141,-0.6289 -8.192,2.157 -10.37,5.734 -2.178,3.5781 -2.888,7.8281 -3.617,11.9523 -0.111,0.6278 -0.266,1.3246 -0.796,1.6789 -0.3,0.2008 -0.673,0.2551 -1.031,0.3028 -12.8556,1.7113 -25.8614,2.2941 -38.8192,1.741 -0.5899,-0.025 -1.2098,-0.061 -1.7102,-0.375 -1.098,-0.6899 -1.0738,-2.2688 -0.9351,-3.559 0.3304,-3.0738 0.5687,-6.2207 -0.1594,-9.2258 -0.7285,-3.0051 -2.5793,-5.8891 -5.4117,-7.1289 -3.4957,-1.5312 -7.7329,-0.2023 -10.5735,2.3469 -2.8406,2.548 -4.5453,6.1051 -5.9949,9.6347 -4.3852,10.6801 -7.0781,21.9633 -9.7543,33.1942 -0.7902,3.316 -1.5859,6.682 -1.4641,10.089 0.1172,3.298 1.0918,6.506 2.2786,9.585 1.0586,2.746 2.316,5.462 4.2222,7.704 3.8063,4.476 9.7,6.53 15.3981,7.965 5.0707,1.276 10.2258,2.217 15.4207,2.814 8.132,0.935 16.739,1.144 23.7336,5.397"
         style="fill:#bebdbb;fill-opacity:1;fill-rule:nonzero;stroke:none;stroke-width:0.1"
         id="path240"
         inkscape:connector-curvature="0" /><path
         d="m 42.2824,101.774 c -3.5527,-8.1029 0.3453,-11.624 -4.7926,-19.1349 5.1243,0.7769 1.7336,-1.7379 5.8082,0.925 0.4688,-2.1461 -1.1472,-5.3371 -0.1042,-7.3422 2.2613,1.6113 6.325,4.8531 7.1664,7.2101 2.0281,-2.505 4.4402,-4.8 7.1617,-6.8148 0.3066,-0.227 0.6633,-0.4652 1.0758,-0.4473 0.5777,0.025 0.9285,0.518 1.1718,0.9481 1.3774,2.43 2.7547,4.859 4.1321,7.289 1.6996,-1.439 3.3992,-2.8781 5.0988,-4.3172 0.348,-0.2949 0.7555,-0.6109 1.2562,-0.6078 0.4825,0.0039 0.8754,0.3039 1.2153,0.5852 1.1785,0.9738 2.3574,1.948 3.5359,2.9219 1.3168,-1.4059 2.634,-2.8121 3.9512,-4.218 1.7113,0.4828 1.4484,2.7168 2.8875,3.6168 1.1629,0.7273 2.8937,0.2301 3.9746,-0.577 1.0809,-0.8078 1.8508,-1.8898 3.0562,-2.5679 1.2059,-0.6789 3.1637,-0.7379 3.8743,0.3101 0.7988,1.1778 -0.2274,3.2301 1.3293,3.668 0.0507,-1.527 2.7007,-1.9359 4.4539,-1.416 1.7532,0.5211 3.5582,1.4941 5.3242,1.0039 1.959,-0.543 3.382,-2.7789 5.319,-2.1852 0.96,0.2953 1.403,1.1801 2.112,1.7871 2.216,1.8973 6.297,0.5512 8.217,-1.5519 -0.395,1 0.67,2.1051 1.934,2.2832 1.263,0.1777 2.543,-0.3742 3.412,-1.1461 1.267,-1.127 2.517,-2.9352 4.301,-2.4762 1.606,0.4133 8.346,0.5371 9.94,0.9801 0,0 -2.674,2.4961 0,4.4559 2.674,1.9613 1.069,8.5562 1.069,8.5562 l -97.8806,8.2619"
         style="fill:#bebdbb;fill-opacity:1;fill-rule:nonzero;stroke:none;stroke-width:0.1"
         id="path242"
         inkscape:connector-curvature="0" /><path
         d="m 36.7242,113.266 c -0.8219,-6.925 -1.448,-19.7828 -2.2699,-26.707 1.6969,2.0152 3.0504,4.3601 3.9738,6.882 1.4172,-2.532 2.834,-5.064 4.2508,-7.5961 1.675,3.3961 3.3496,6.7922 5.0246,10.1883 3.5469,-5.7281 9.5137,-9.1113 15.2317,-12.2621 1.3066,3.241 2.6136,6.482 3.9203,9.723 0.925,-1.532 1.85,-3.064 2.775,-4.5961 0.2117,-0.35 0.4683,-0.7339 0.855,-0.798 0.3852,-0.0629 0.7395,0.216 1.0418,0.4801 1.5106,1.314 3.0207,2.6289 4.5313,3.9429 0.6266,-1.9539 2.0215,-4.3558 3.866,-3.7191 1.9285,0.6672 2.3438,4.302 4.3617,4.125 0.7973,-0.0699 1.3883,-0.7738 2.0184,-1.298 2.1652,-1.8 5.6238,-1.4727 7.4699,0.707 0.7578,0.8953 1.559,2.175 2.6613,1.9203 0.6055,-0.1402 1.0141,-0.7211 1.4004,-1.2371 2.1211,-2.834 5.2157,-4.818 8.5597,-5.4871 0.528,2.3801 1.432,4.6648 2.662,6.7308 4.205,-2.3066 8.312,-4.8168 12.304,-7.5199 0.306,2.841 0.612,5.6832 0.918,8.525 4.695,-3.057 8.48,-7.6758 10.695,-13.0488 0.91,2.975 1.821,5.9508 2.731,8.9258 0.119,0.3902 0.27,0.8203 0.615,1.0011 0.554,0.2891 1.159,-0.2398 1.574,-0.725 1.164,-1.3609 2.328,-2.7218 3.493,-4.0832 0.892,1.6774 1.783,3.3543 2.675,5.0313 1.502,-2.593 4.088,-4.4379 6.909,-4.9313 -0.703,4.0192 -1.406,8.0383 -2.11,12.0571 1.248,-1.4821 3.04,-2.4278 4.904,-2.5879 -2.218,7.1 -4.951,14.015 -8.169,20.663 L 36.7242,113.266"
         style="fill:#b1b1b0;fill-opacity:1;fill-rule:nonzero;stroke:none;stroke-width:0.1"
         id="path244"
         inkscape:connector-curvature="0" /><path
         d="m 40.073,130.078 c -3.5527,-8.103 -7.9281,-15.964 -13.066,-23.475 5.1243,0.777 10.0071,2.603 14.0817,5.265 0.4691,-2.145 1.2347,-4.247 2.2777,-6.252 2.2613,1.612 3.9434,3.763 4.7848,6.12 2.0281,-2.505 4.4398,-4.8 7.1613,-6.815 0.3066,-0.227 0.6633,-0.465 1.0762,-0.447 0.5773,0.026 0.9281,0.518 1.1718,0.948 1.3774,2.43 2.7547,4.86 4.1321,7.29 1.6996,-1.44 3.3992,-2.879 5.0984,-4.318 0.3485,-0.295 0.7559,-0.611 1.2563,-0.608 0.4828,0.004 0.8754,0.304 1.2156,0.585 1.1785,0.974 2.357,1.948 3.5355,2.922 1.3172,-1.406 2.634,-2.812 3.9512,-4.218 1.7117,0.483 1.4484,2.718 2.8875,3.617 1.1633,0.727 2.8938,0.23 3.9746,-0.577 1.0813,-0.808 1.8508,-1.889 3.0567,-2.568 1.2054,-0.679 3.1636,-0.738 3.8738,0.31 0.7992,1.179 -0.2274,3.231 1.3293,3.668 0.0512,-1.527 2.7008,-1.936 4.4539,-1.416 1.7531,0.521 3.5586,1.494 5.3246,1.004 1.959,-0.543 3.381,-2.779 5.318,-2.185 0.96,0.295 1.403,1.18 2.112,1.787 2.217,1.897 6.298,0.551 8.218,-1.551 -0.395,0.999 0.67,2.105 1.934,2.282 1.263,0.178 2.543,-0.373 3.411,-1.146 1.268,-1.127 2.518,-2.934 4.302,-2.475 1.606,0.412 1.876,2.433 3.47,2.876 2.117,0.589 3.899,-2.143 6.088,-1.771 1.674,0.284 2.651,2.296 4.319,1.989 0.494,-0.091 0.892,-0.383 1.265,-0.664 1.293,-0.975 2.586,-1.95 3.879,-2.925 0.355,2.187 8.131,4.809 10.17,3.369 -1.706,5.589 -7.334,9.572 -9.04,15.161 -0.774,2.536 -1.57,5.116 -3.228,7.35 -2.801,3.776 -7.722,6.124 -12.625,7.966 -4.902,1.842 -10.079,3.38 -14.264,6.168 -2.206,1.47 -4.284,3.342 -7.091,3.713 -2.436,0.322 -4.828,-0.577 -7.158,-1.243 -11.064,-3.167 -23.321,-1.3 -34.8425,-3.056 -5.0586,-0.771 -9.9156,-2.233 -14.7449,-3.689 -2.4922,-0.751 -5.0742,-1.548 -6.9223,-3.111 -1.3469,-1.138 -2.2035,-2.603 -3.4219,-3.835 -3.7933,-3.835 -10.3238,-4.823 -16.2816,-5.553 4.3633,-0.84 8.8238,-1.339 13.3023,-1.488 l 0.2539,0.996"
         style="fill:#bebdbb;fill-opacity:1;fill-rule:nonzero;stroke:none;stroke-width:0.1"
         id="path246"
         inkscape:connector-curvature="0" /><path
         d="m 130.984,124.909 c -0.558,-0.29 -1.185,-0.383 -1.792,-0.225 -14.855,3.856 -30.8178,21.514 -35.2213,28.345 l -0.0699,0.113 c -0.1059,-0.223 -0.2004,-0.408 -0.2797,-0.534 l -1.4926,-1.244 c -0.7105,-1.132 0.3891,-3.185 1.1281,-4.332 4.4036,-6.831 20.3664,-24.489 35.2214,-28.346 0.608,-0.157 1.234,-0.064 1.792,0.226 3.571,1.86 17.168,9.328 21.424,17.31 0,0 1.601,2.771 -0.044,4.734 -4.916,-7.494 -17.284,-14.285 -20.666,-16.047"
         style="fill:#71cfce;fill-opacity:1;fill-rule:nonzero;stroke:none;stroke-width:0.1"
         id="path248"
         inkscape:connector-curvature="0" /><path
         d="m 145.797,199.535 c 0,0 23.253,3.997 28.61,-7.219 5.356,-11.216 13.593,-31.117 2.206,-28.148 -11.387,2.969 -17.992,20.231 -21.257,18.232 -3.265,-1.999 -9.559,17.135 -9.559,17.135"
         style="fill:#b1b1b0;fill-opacity:1;fill-rule:nonzero;stroke:none;stroke-width:0.1"
         id="path250"
         inkscape:connector-curvature="0" /><path
         d="m 109.434,200.815 c 0,0 -22.6856,6.484 -29.2211,-4.089 -6.5359,-10.572 -16.8723,-29.468 -5.2316,-27.745 11.641,1.723 20.071,18.17 23.1011,15.831 3.0296,-2.34 11.3516,16.003 11.3516,16.003"
         style="fill:#b1b1b0;fill-opacity:1;fill-rule:nonzero;stroke:none;stroke-width:0.1"
         id="path252"
         inkscape:connector-curvature="0" /><path
         d="m 87.559,165.796 c -0.2391,-26.717 17.628,-30.425 38.274,-30.61 20.646,-0.185 36.253,3.223 36.492,29.94 0.24,26.717 -17.416,39.87 -34.709,39.757 -18.413,-0.121 -39.818,-12.37 -40.057,-39.087"
         style="fill:#bebdbb;fill-opacity:1;fill-rule:nonzero;stroke:none;stroke-width:0.1"
         id="path254"
         inkscape:connector-curvature="0" /><path
         d="m 92.277,155.952 c -8.6899,-2.674 -10.3313,-12.78 -12.5715,-19.154 2.864,2.744 5.4535,5.775 7.7164,9.032 0.0527,-3.64 1.6617,-7.126 3.9031,-9.995 2.241,-2.87 5.0934,-5.195 7.975,-7.42 -1.3617,4.046 -1.7328,8.422 -1.0723,12.639 1.3434,-2.944 3.4913,-5.515 6.1483,-7.362 2.325,-1.617 4.997,-2.668 7.38,-4.199 2.382,-1.53 4.565,-3.733 5.051,-6.523 0.073,4.062 0.146,8.125 0.219,12.187 5.424,-5.511 10.25,-11.61 14.366,-18.157 -0.285,4.448 -0.011,8.931 0.813,13.31 1.963,-2.804 3.418,-5.963 4.273,-9.278 2.484,4.702 5.353,9.201 8.567,13.437 1.357,-3.775 5.251,-8.216 5.654,-12.207 3.429,5.187 2.912,11.498 4.293,17.561 1.364,-1.488 2.729,-2.975 4.093,-4.463 1.36,-1.482 2.817,-3.028 4.745,-3.602 -2.915,4.7 -4.654,10.123 -5.014,15.642 2.191,-1.704 3.781,-4.166 4.433,-6.864 0.994,4.429 0.538,9.658 -2.523,13.01 l -68.449,2.406"
         style="fill:#e9e8e7;fill-opacity:1;fill-rule:nonzero;stroke:none;stroke-width:0.1"
         id="path256"
         inkscape:connector-curvature="0" /><path
         d="m 133.82,179.208 c 0.498,0.721 1.38,1.052 2.212,1.324 2.728,0.89 5.522,1.576 8.352,2.052 2.507,0.422 5.093,0.675 7.579,0.143 2.486,-0.532 4.883,-1.954 6.081,-4.196 -1.196,0.578 -2.603,0.705 -3.883,0.352 0.807,-0.466 1.607,-0.944 2.399,-1.435 0.867,-0.538 1.771,-1.099 2.327,-1.955 1.589,-2.446 1.031,-3.686 1.59,-5.415 -0.699,1.433 -2.211,2.655 -3.683,3.268 -1.471,0.614 -3.065,0.863 -4.64,1.105 0.252,-0.976 0.505,-1.952 0.758,-2.929 0.112,-0.433 0.072,-1.087 -0.376,-1.095 -0.901,1.258 -1.812,2.527 -2.971,3.551 -2.877,2.541 -6.948,3.277 -10.785,3.174 -2.336,-0.063 -4.665,-0.399 -6.923,-0.998 l 1.963,3.054"
         style="fill:#f5f6f5;fill-opacity:1;fill-rule:nonzero;stroke:none;stroke-width:0.1"
         id="path258"
         inkscape:connector-curvature="0" /><path
         d="m 121.202,179.778 c -0.351,0.802 -1.154,1.296 -1.919,1.721 -2.508,1.395 -5.12,2.602 -7.807,3.609 -2.38,0.893 -4.87,1.636 -7.412,1.588 -2.542,-0.048 -5.1656,-0.986 -6.7702,-2.958 1.2843,0.339 2.6894,0.195 3.8792,-0.396 -0.882,-0.303 -1.7578,-0.62 -2.6289,-0.951 -0.9543,-0.362 -1.9484,-0.74 -2.6578,-1.474 -2.0269,-2.098 -1.716,-3.422 -2.5945,-5.012 0.9598,1.273 2.6777,2.183 4.2391,2.505 1.5617,0.321 3.1731,0.261 4.7661,0.199 -0.434,-0.911 -0.869,-1.821 -1.303,-2.731 -0.193,-0.403 -0.278,-1.053 0.159,-1.146 1.125,1.062 2.262,2.134 3.595,2.918 3.309,1.945 7.446,1.89 11.193,1.056 2.28,-0.508 4.502,-1.282 6.605,-2.301 l -1.344,3.373"
         style="fill:#f5f6f5;fill-opacity:1;fill-rule:nonzero;stroke:none;stroke-width:0.1"
         id="path260"
         inkscape:connector-curvature="0" /><path
         d="m 130.2,159.517 c 9.002,3.12 13.96,0.242 15.821,-0.106 7.161,-1.339 12.478,-4.921 19.402,-6.598 -4.022,-0.395 -8.019,-0.469 -11.88,-0.219 2.568,-1.893 6.335,-2.902 8.924,-4.781 2.814,-2.042 4.02,-4.94 5.16,-7.754 -1.941,0.981 -3.882,1.963 -5.823,2.945 0.676,-3.923 -0.183,-8.162 -2.472,-12.205 -2.047,3.961 -5.393,7.441 -9.484,10.405 1.004,-2.823 1.099,-5.904 0.278,-8.996 -0.397,-1.496 -1.006,-3.056 -0.526,-4.424 -0.952,2.574 -2.529,4.966 -4.657,7.064 -1.701,1.678 -3.744,3.163 -5.53,4.794 -2.479,2.266 -4.447,4.802 -6.34,7.359 -1.916,2.589 -3.805,5.378 -3.234,8.551 l 0.361,3.965"
         style="fill:#ffffff;fill-opacity:1;fill-rule:nonzero;stroke:none;stroke-width:0.1"
         id="path262"
         inkscape:connector-curvature="0" /><path
         d="m 121.02,160.097 c -1.844,0.837 -12.733,0.838 -14.574,0.578 -7.0858,-1.002 -12.494,-4.327 -19.3663,-5.676 3.9141,-0.582 7.8215,-0.842 11.6152,-0.773 -2.6211,-1.768 -5.9156,-2.671 -8.557,-4.424 -2.8711,-1.905 -4.6672,-4.667 -5.9438,-7.421 1.9563,0.889 3.9122,1.777 5.868,2.666 -0.8851,-3.881 -0.2863,-8.148 1.7234,-12.286 2.2297,3.854 5.7028,7.169 9.8755,9.935 -1.142,-2.769 -1.411,-5.837 -0.784,-8.959 0.303,-1.51 0.81,-3.095 0.262,-4.436 1.079,2.523 2.759,4.834 4.961,6.828 1.761,1.593 3.846,2.979 5.686,4.523 2.557,2.145 4.627,4.582 6.625,7.044 2.024,2.493 4.032,5.185 3.653,8.377 l -1.044,4.024"
         style="fill:#ffffff;fill-opacity:1;fill-rule:nonzero;stroke:none;stroke-width:0.1"
         id="path264"
         inkscape:connector-curvature="0" /><path
         d="m 135.535,169.206 c 0.484,-2.508 2.91,-4.149 5.418,-3.665 2.509,0.484 4.15,2.91 3.666,5.418 -0.484,2.508 -2.91,4.149 -5.419,3.665 -2.508,-0.484 -4.149,-2.91 -3.665,-5.418"
         style="fill:#2e2d2d;fill-opacity:1;fill-rule:nonzero;stroke:none;stroke-width:0.1"
         id="path266"
         inkscape:connector-curvature="0" /><path
         d="m 109.627,169.782 c 0.484,-2.508 2.91,-4.149 5.419,-3.665 2.508,0.484 4.149,2.91 3.665,5.418 -0.484,2.509 -2.91,4.15 -5.418,3.666 -2.509,-0.485 -4.15,-2.91 -3.666,-5.419"
         style="fill:#2e2d2d;fill-opacity:1;fill-rule:nonzero;stroke:none;stroke-width:0.1"
         id="path268"
         inkscape:connector-curvature="0" /><path
         d="m 119.623,157.607 c 0.063,-2.201 3.283,-5.667 7.126,-5.555 3.844,0.111 6.857,3.757 6.793,5.959 -0.063,2.201 -3.231,3.895 -7.075,3.784 -3.844,-0.112 -6.908,-1.986 -6.844,-4.188"
         style="fill:#2e2d2d;fill-opacity:1;fill-rule:nonzero;stroke:none;stroke-width:0.1"
         id="path270"
         inkscape:connector-curvature="0" /><path
         d="m 119.543,65.3191 c 0,0 3.216,2.4559 3.754,6.3368 0,0 0.427,-5.8508 -0.832,-7.9137 0,0 -2.011,0.5707 -2.922,1.5769"
         style="fill:#c4c2c1;fill-opacity:1;fill-rule:nonzero;stroke:none;stroke-width:0.1"
         id="path272"
         inkscape:connector-curvature="0" /><path
         d="m 125.391,63.4289 c 0,0 1.837,4.5402 1.389,7.275 0,0 1.725,-4.35 1.387,-7.0059 0,0 -1.629,-0.5378 -2.776,-0.2691"
         style="fill:#c4c2c1;fill-opacity:1;fill-rule:nonzero;stroke:none;stroke-width:0.1"
         id="path274"
         inkscape:connector-curvature="0" /><path
         d="m 54.1684,65.5422 c 0,0 3.2168,2.4558 3.7543,6.3367 0,0 0.4269,-5.8508 -0.8325,-7.9141 0,0 -2.0109,0.5711 -2.9218,1.5774"
         style="fill:#c4c2c1;fill-opacity:1;fill-rule:nonzero;stroke:none;stroke-width:0.1"
         id="path276"
         inkscape:connector-curvature="0" /><path
         d="m 60.0172,63.652 c 0,0 1.8359,4.5402 1.3887,7.2742 0,0 1.7254,-4.3492 1.3867,-7.0051 0,0 -1.6285,-0.5379 -2.7754,-0.2691"
         style="fill:#c4c2c1;fill-opacity:1;fill-rule:nonzero;stroke:none;stroke-width:0.1"
         id="path278"
         inkscape:connector-curvature="0" /><path
         d="m 320.292,67.916 c 0,-4.832 -28.43,-8.75 -63.5,-8.75 -35.07,0 -63.5,3.918 -63.5,8.75 0,4.8328 28.43,8.75 63.5,8.75 35.07,0 63.5,-3.9172 63.5,-8.75"
         style="fill:#b1d2b9;fill-opacity:1;fill-rule:nonzero;stroke:none;stroke-width:0.1"
         id="path280"
         inkscape:connector-curvature="0" /><path
         d="m 292.246,79.5699 c -2.558,3.202 -2.793,3.6473 -5.894,6.0321 2.883,10.8351 4.658,22.293 3.686,33.622 -0.972,11.328 -4.909,22.553 -11.985,30.003 l -44.621,0.932 c -7.076,-7.449 -11.012,-18.675 -11.985,-30.003 -0.972,-11.328 0.803,-22.7861 3.687,-33.6208 -3.102,-2.386 -3.337,-2.8313 -5.895,-6.0332 -1.558,-1.95 -3.103,-4.509 -2.559,-7.1481 0.395,-1.9148 1.799,-3.259 3.217,-4.2168 5.881,-3.975 10.935,-5.9949 16.542,-1.4723 0.559,0.4524 1.122,0.9532 1.783,1.0973 0.373,0.082 0.752,0.0379 1.128,-0.0402 10.441,-3.5117 21.583,-3.8969 32.166,-1.0817 0.575,0.1528 1.168,0.3157 1.748,0.1899 0.66,-0.1442 1.223,-0.6449 1.782,-1.0969 5.607,-4.5242 10.661,-2.5031 16.542,1.4707 1.418,0.959 2.823,2.302 3.217,4.218 0.544,2.639 -1.001,5.198 -2.559,7.148"
         style="fill:#fafafa;fill-opacity:1;fill-rule:nonzero;stroke:none;stroke-width:0.1"
         id="path282"
         inkscape:connector-curvature="0" /><path
         d="m 277.099,63.5801 0.031,0.0168 c 3.264,1.6601 5.387,4.8781 5.366,8.1383 -0.016,2.3886 -1.083,4.6589 -1.853,6.95 -2.504,7.448 -1.908,15.375 -2.143,23.1358 -0.201,6.631 -1.178,13.558 -4.904,19.242 -0.998,1.521 -2.999,2.447 -5.156,2.416 -2.178,-0.031 -4.177,-1.033 -5.139,-2.603 -3.625,-5.925 -4.289,-13.034 -4.171,-19.794 0.136,-7.764 1.11,-15.6539 -1.035,-23.2121 -0.66,-2.3258 -1.618,-4.6437 -1.519,-7.0308 0.134,-3.2582 2.409,-6.37 5.749,-7.8719 l 0.032,-0.016 0.267,-0.1071 0.185,-0.0332 c 4.785,-0.814 10.065,-1.3617 14.29,0.7692"
         style="fill:#ffffff;fill-opacity:1;fill-rule:nonzero;stroke:none;stroke-width:0.1"
         id="path284"
         inkscape:connector-curvature="0" /><path
         d="m 250.245,63.466 0.032,0.0172 c 3.264,1.6598 5.387,4.877 5.366,8.1379 -0.016,2.3891 -1.083,4.659 -1.853,6.95 -2.504,7.4469 -1.908,15.375 -2.143,23.1359 -0.201,6.631 -1.178,13.558 -4.904,19.242 -0.998,1.521 -2.999,2.447 -5.157,2.416 -2.177,-0.031 -4.176,-1.033 -5.138,-2.603 -3.625,-5.925 -4.289,-13.034 -4.171,-19.794 0.135,-7.7641 1.11,-15.6539 -1.035,-23.2121 -0.66,-2.3258 -1.618,-4.6438 -1.519,-7.0309 0.134,-3.2578 2.409,-6.3699 5.749,-7.8719 l 0.031,-0.016 0.268,-0.107 0.185,-0.0332 c 4.784,-0.8137 10.065,-1.3617 14.289,0.7691"
         style="fill:#ffffff;fill-opacity:1;fill-rule:nonzero;stroke:none;stroke-width:0.1"
         id="path286"
         inkscape:connector-curvature="0" /><path
         d="m 245.496,62.2641 c 0,0 -1.914,3.264 -1.006,6.8129 0,0 -2.44,-4.9122 -2.081,-7.1438 0,0 1.943,-0.2172 3.087,0.3309"
         style="fill:#e9e8e7;fill-opacity:1;fill-rule:nonzero;stroke:none;stroke-width:0.1"
         id="path288"
         inkscape:connector-curvature="0" /><path
         d="m 236.729,62.6352 c 0,0 -0.973,4.714 -0.055,7.1359 0,0 -2.389,-3.6641 -2.573,-6.1609 0,0 1.527,-1.0082 2.628,-0.975"
         style="fill:#e9e8e7;fill-opacity:1;fill-rule:nonzero;stroke:none;stroke-width:0.1"
         id="path290"
         inkscape:connector-curvature="0" /><path
         d="m 263.667,62.8891 c 0,0 2.244,3.0468 1.711,6.6711 0,0 1.915,-5.1403 1.325,-7.3223 0,0 -1.954,-0.0137 -3.036,0.6512"
         style="fill:#e9e8e7;fill-opacity:1;fill-rule:nonzero;stroke:none;stroke-width:0.1"
         id="path292"
         inkscape:connector-curvature="0" /><path
         d="m 273.592,62.5551 c 0,0 0.844,4.5008 -0.072,6.9238 0,0 2.386,-3.6668 2.567,-6.1641 0,0 -1.394,-0.7937 -2.495,-0.7597"
         style="fill:#e9e8e7;fill-opacity:1;fill-rule:nonzero;stroke:none;stroke-width:0.1"
         id="path294"
         inkscape:connector-curvature="0" /><path
         d="m 221.092,188.42 c 1.623,-5.491 4.158,-10.42 5.565,-16.025 1.406,-5.604 1.439,-12.487 -1.508,-16.785 -1.787,-2.606 -4.448,-3.938 -5.956,-6.865 -1.451,-2.817 -1.549,-6.549 -2.563,-9.714 -0.248,-0.771 -0.565,-1.532 -1.058,-2.025 -0.384,-0.385 -0.85,-0.58 -1.314,-0.717 -2.348,-0.693 -4.841,-0.024 -6.983,1.483 -2.141,1.507 -3.952,3.811 -5.469,6.395 -0.668,1.139 -1.29,2.35 -1.687,3.711 -0.611,2.088 -0.659,4.399 -0.699,6.652 -0.094,5.253 -0.173,10.643 1.085,15.599 1.215,4.789 3.589,8.812 5.918,12.727 1.931,3.246 3.891,6.531 6.36,8.974 1.69,1.673 3.579,2.91 5.456,4.138 l 2.853,-7.548"
         style="fill:#f5f6f5;fill-opacity:1;fill-rule:nonzero;stroke:none;stroke-width:0.1"
         id="path296"
         inkscape:connector-curvature="0" /><path
         d="m 209.164,193.916 c 0,-2.485 2.015,-4.5 4.5,-4.5 2.486,0 4.5,2.015 4.5,4.5 0,2.486 -2.014,4.5 -4.5,4.5 -2.485,0 -4.5,-2.014 -4.5,-4.5"
         style="fill:#f5f6f5;fill-opacity:1;fill-rule:nonzero;stroke:none;stroke-width:0.1"
         id="path298"
         inkscape:connector-curvature="0" /><path
         d="m 205.789,187.666 c 0,-2.485 2.015,-4.5 4.5,-4.5 2.486,0 4.5,2.015 4.5,4.5 0,2.486 -2.014,4.5 -4.5,4.5 -2.485,0 -4.5,-2.014 -4.5,-4.5"
         style="fill:#f5f6f5;fill-opacity:1;fill-rule:nonzero;stroke:none;stroke-width:0.1"
         id="path300"
         inkscape:connector-curvature="0" /><path
         d="m 199.914,184.416 c 0,-2.485 2.015,-4.5 4.5,-4.5 2.486,0 4.5,2.015 4.5,4.5 0,2.486 -2.014,4.5 -4.5,4.5 -2.485,0 -4.5,-2.014 -4.5,-4.5"
         style="fill:#f5f6f5;fill-opacity:1;fill-rule:nonzero;stroke:none;stroke-width:0.1"
         id="path302"
         inkscape:connector-curvature="0" /><path
         d="m 199.539,178.166 c 0,-2.485 2.015,-4.5 4.5,-4.5 2.486,0 4.5,2.015 4.5,4.5 0,2.486 -2.014,4.5 -4.5,4.5 -2.485,0 -4.5,-2.014 -4.5,-4.5"
         style="fill:#f5f6f5;fill-opacity:1;fill-rule:nonzero;stroke:none;stroke-width:0.1"
         id="path304"
         inkscape:connector-curvature="0" /><path
         d="m 196.539,171.791 c 0,-2.485 2.015,-4.5 4.5,-4.5 2.486,0 4.5,2.015 4.5,4.5 0,2.486 -2.014,4.5 -4.5,4.5 -2.485,0 -4.5,-2.014 -4.5,-4.5"
         style="fill:#f5f6f5;fill-opacity:1;fill-rule:nonzero;stroke:none;stroke-width:0.1"
         id="path306"
         inkscape:connector-curvature="0" /><path
         d="m 195.289,164.541 c 0,-2.485 2.015,-4.5 4.5,-4.5 2.486,0 4.5,2.015 4.5,4.5 0,2.486 -2.014,4.5 -4.5,4.5 -2.485,0 -4.5,-2.014 -4.5,-4.5"
         style="fill:#f5f6f5;fill-opacity:1;fill-rule:nonzero;stroke:none;stroke-width:0.1"
         id="path308"
         inkscape:connector-curvature="0" /><path
         d="m 195.039,157.541 c 0,-2.485 2.015,-4.5 4.5,-4.5 2.486,0 4.5,2.015 4.5,4.5 0,2.486 -2.014,4.5 -4.5,4.5 -2.485,0 -4.5,-2.014 -4.5,-4.5"
         style="fill:#f5f6f5;fill-opacity:1;fill-rule:nonzero;stroke:none;stroke-width:0.1"
         id="path310"
         inkscape:connector-curvature="0" /><path
         d="m 197.164,152.041 c 0,-2.485 2.015,-4.5 4.5,-4.5 2.486,0 4.5,2.015 4.5,4.5 0,2.486 -2.014,4.5 -4.5,4.5 -2.485,0 -4.5,-2.014 -4.5,-4.5"
         style="fill:#f5f6f5;fill-opacity:1;fill-rule:nonzero;stroke:none;stroke-width:0.1"
         id="path312"
         inkscape:connector-curvature="0" /><path
         d="m 198.164,145.166 c 0,-2.485 2.015,-4.5 4.5,-4.5 2.486,0 4.5,2.015 4.5,4.5 0,2.486 -2.014,4.5 -4.5,4.5 -2.485,0 -4.5,-2.014 -4.5,-4.5"
         style="fill:#f5f6f5;fill-opacity:1;fill-rule:nonzero;stroke:none;stroke-width:0.1"
         id="path314"
         inkscape:connector-curvature="0" /><path
         d="m 201.539,138.666 c 0,-2.485 2.015,-4.5 4.5,-4.5 2.486,0 4.5,2.015 4.5,4.5 0,2.486 -2.014,4.5 -4.5,4.5 -2.485,0 -4.5,-2.014 -4.5,-4.5"
         style="fill:#f5f6f5;fill-opacity:1;fill-rule:nonzero;stroke:none;stroke-width:0.1"
         id="path316"
         inkscape:connector-curvature="0" /><path
         d="m 208.414,138.291 c 0,-2.485 2.015,-4.5 4.5,-4.5 2.486,0 4.5,2.015 4.5,4.5 0,2.486 -2.014,4.5 -4.5,4.5 -2.485,0 -4.5,-2.014 -4.5,-4.5"
         style="fill:#f5f6f5;fill-opacity:1;fill-rule:nonzero;stroke:none;stroke-width:0.1"
         id="path318"
         inkscape:connector-curvature="0" /><path
         d="m 213.164,142.291 c 0,-2.485 2.015,-4.5 4.5,-4.5 2.486,0 4.5,2.015 4.5,4.5 0,2.486 -2.014,4.5 -4.5,4.5 -2.485,0 -4.5,-2.014 -4.5,-4.5"
         style="fill:#f5f6f5;fill-opacity:1;fill-rule:nonzero;stroke:none;stroke-width:0.1"
         id="path320"
         inkscape:connector-curvature="0" /><path
         d="m 214.039,149.166 c 0,-2.485 2.015,-4.5 4.5,-4.5 2.486,0 4.5,2.015 4.5,4.5 0,2.486 -2.014,4.5 -4.5,4.5 -2.485,0 -4.5,-2.014 -4.5,-4.5"
         style="fill:#f5f6f5;fill-opacity:1;fill-rule:nonzero;stroke:none;stroke-width:0.1"
         id="path322"
         inkscape:connector-curvature="0" /><path
         d="m 290.364,189.17 c -1.623,-5.491 -4.158,-10.42 -5.565,-16.025 -1.406,-5.604 -1.439,-12.487 1.508,-16.785 1.787,-2.606 4.448,-3.938 5.956,-6.865 1.452,-2.817 1.549,-6.549 2.563,-9.714 0.248,-0.771 0.565,-1.532 1.058,-2.025 0.384,-0.385 0.85,-0.58 1.314,-0.717 2.348,-0.693 4.841,-0.024 6.983,1.483 2.141,1.507 3.952,3.811 5.469,6.395 0.668,1.139 1.29,2.35 1.687,3.711 0.611,2.088 0.659,4.399 0.699,6.652 0.094,5.253 0.173,10.643 -1.085,15.599 -1.215,4.789 -3.589,8.812 -5.918,12.727 -1.93,3.246 -3.891,6.531 -6.36,8.974 -1.69,1.673 -3.578,2.91 -5.455,4.138 l -2.854,-7.548"
         style="fill:#f5f6f5;fill-opacity:1;fill-rule:nonzero;stroke:none;stroke-width:0.1"
         id="path324"
         inkscape:connector-curvature="0" /><path
         d="m 302.292,194.666 c 0,-2.485 -2.015,-4.5 -4.5,-4.5 -2.486,0 -4.5,2.015 -4.5,4.5 0,2.486 2.014,4.5 4.5,4.5 2.485,0 4.5,-2.014 4.5,-4.5"
         style="fill:#f5f6f5;fill-opacity:1;fill-rule:nonzero;stroke:none;stroke-width:0.1"
         id="path326"
         inkscape:connector-curvature="0" /><path
         d="m 305.667,188.416 c 0,-2.485 -2.015,-4.5 -4.5,-4.5 -2.486,0 -4.5,2.015 -4.5,4.5 0,2.486 2.014,4.5 4.5,4.5 2.485,0 4.5,-2.014 4.5,-4.5"
         style="fill:#f5f6f5;fill-opacity:1;fill-rule:nonzero;stroke:none;stroke-width:0.1"
         id="path328"
         inkscape:connector-curvature="0" /><path
         d="m 311.542,185.166 c 0,-2.485 -2.015,-4.5 -4.5,-4.5 -2.486,0 -4.5,2.015 -4.5,4.5 0,2.486 2.014,4.5 4.5,4.5 2.485,0 4.5,-2.014 4.5,-4.5"
         style="fill:#f5f6f5;fill-opacity:1;fill-rule:nonzero;stroke:none;stroke-width:0.1"
         id="path330"
         inkscape:connector-curvature="0" /><path
         d="m 311.917,178.916 c 0,-2.485 -2.015,-4.5 -4.5,-4.5 -2.486,0 -4.5,2.015 -4.5,4.5 0,2.486 2.014,4.5 4.5,4.5 2.485,0 4.5,-2.014 4.5,-4.5"
         style="fill:#f5f6f5;fill-opacity:1;fill-rule:nonzero;stroke:none;stroke-width:0.1"
         id="path332"
         inkscape:connector-curvature="0" /><path
         d="m 314.917,172.541 c 0,-2.485 -2.015,-4.5 -4.5,-4.5 -2.486,0 -4.5,2.015 -4.5,4.5 0,2.486 2.014,4.5 4.5,4.5 2.485,0 4.5,-2.014 4.5,-4.5"
         style="fill:#f5f6f5;fill-opacity:1;fill-rule:nonzero;stroke:none;stroke-width:0.1"
         id="path334"
         inkscape:connector-curvature="0" /><path
         d="m 316.167,165.291 c 0,-2.485 -2.015,-4.5 -4.5,-4.5 -2.486,0 -4.5,2.015 -4.5,4.5 0,2.486 2.014,4.5 4.5,4.5 2.485,0 4.5,-2.014 4.5,-4.5"
         style="fill:#f5f6f5;fill-opacity:1;fill-rule:nonzero;stroke:none;stroke-width:0.1"
         id="path336"
         inkscape:connector-curvature="0" /><path
         d="m 316.417,158.291 c 0,-2.485 -2.015,-4.5 -4.5,-4.5 -2.486,0 -4.5,2.015 -4.5,4.5 0,2.486 2.014,4.5 4.5,4.5 2.485,0 4.5,-2.014 4.5,-4.5"
         style="fill:#f5f6f5;fill-opacity:1;fill-rule:nonzero;stroke:none;stroke-width:0.1"
         id="path338"
         inkscape:connector-curvature="0" /><path
         d="m 314.292,152.791 c 0,-2.485 -2.015,-4.5 -4.5,-4.5 -2.486,0 -4.5,2.015 -4.5,4.5 0,2.486 2.014,4.5 4.5,4.5 2.485,0 4.5,-2.014 4.5,-4.5"
         style="fill:#f5f6f5;fill-opacity:1;fill-rule:nonzero;stroke:none;stroke-width:0.1"
         id="path340"
         inkscape:connector-curvature="0" /><path
         d="m 313.292,145.916 c 0,-2.485 -2.015,-4.5 -4.5,-4.5 -2.486,0 -4.5,2.015 -4.5,4.5 0,2.486 2.014,4.5 4.5,4.5 2.485,0 4.5,-2.014 4.5,-4.5"
         style="fill:#f5f6f5;fill-opacity:1;fill-rule:nonzero;stroke:none;stroke-width:0.1"
         id="path342"
         inkscape:connector-curvature="0" /><path
         d="m 309.917,139.416 c 0,-2.485 -2.015,-4.5 -4.5,-4.5 -2.486,0 -4.5,2.015 -4.5,4.5 0,2.486 2.014,4.5 4.5,4.5 2.485,0 4.5,-2.014 4.5,-4.5"
         style="fill:#f5f6f5;fill-opacity:1;fill-rule:nonzero;stroke:none;stroke-width:0.1"
         id="path344"
         inkscape:connector-curvature="0" /><path
         d="m 303.042,139.041 c 0,-2.485 -2.015,-4.5 -4.5,-4.5 -2.486,0 -4.5,2.015 -4.5,4.5 0,2.486 2.014,4.5 4.5,4.5 2.485,0 4.5,-2.014 4.5,-4.5"
         style="fill:#f5f6f5;fill-opacity:1;fill-rule:nonzero;stroke:none;stroke-width:0.1"
         id="path346"
         inkscape:connector-curvature="0" /><path
         d="m 298.292,143.041 c 0,-2.485 -2.015,-4.5 -4.5,-4.5 -2.486,0 -4.5,2.015 -4.5,4.5 0,2.486 2.014,4.5 4.5,4.5 2.485,0 4.5,-2.014 4.5,-4.5"
         style="fill:#f5f6f5;fill-opacity:1;fill-rule:nonzero;stroke:none;stroke-width:0.1"
         id="path348"
         inkscape:connector-curvature="0" /><path
         d="m 297.417,149.916 c 0,-2.485 -2.015,-4.5 -4.5,-4.5 -2.486,0 -4.5,2.015 -4.5,4.5 0,2.486 2.014,4.5 4.5,4.5 2.485,0 4.5,-2.014 4.5,-4.5"
         style="fill:#f5f6f5;fill-opacity:1;fill-rule:nonzero;stroke:none;stroke-width:0.1"
         id="path350"
         inkscape:connector-curvature="0" /><path
         d="m 285.84,164.572 c 1.991,4.747 3.025,10.038 2.849,15.59 -0.624,19.596 -16.055,29.588 -34.496,29.001 -18.44,-0.587 -32.907,-11.529 -32.284,-31.126 0.162,-5.082 1.328,-9.879 3.279,-14.192 -3.711,-4.609 -5.79,-10.082 -5.605,-15.897 0.495,-15.548 16.827,-26.163 36.667,-25.532 19.84,0.631 35.676,12.27 35.181,27.818 -0.168,5.305 -2.201,10.206 -5.591,14.338"
         style="fill:#ffffff;fill-opacity:1;fill-rule:nonzero;stroke:none;stroke-width:0.1"
         id="path352"
         inkscape:connector-curvature="0" /><path
         d="m 274.167,141.958 c 0,-9.044 -8.544,-16.375 -19.084,-16.375 -10.539,0 -19.083,7.331 -19.083,16.375 0,9.044 8.544,16.375 19.083,16.375 10.54,0 19.084,-7.331 19.084,-16.375"
         style="fill:#fafafa;fill-opacity:1;fill-rule:nonzero;stroke:none;stroke-width:0.1"
         id="path354"
         inkscape:connector-curvature="0" /><path
         d="m 295.5,196.75 c 0,2.991 -2.463,5.416 -5.501,5.416 l -0.248,-0.012 c -0.031,2.906 -2.377,5.26 -5.309,5.367 -0.507,2.485 -2.736,4.356 -5.409,4.356 -0.563,0 -1.105,-0.084 -1.617,-0.238 -0.781,1.242 -2.052,2.152 -3.551,2.462 -0.531,2.455 -2.743,4.296 -5.394,4.296 -2.301,0 -4.272,-1.388 -5.1,-3.359 -0.982,0.889 -2.289,1.437 -3.729,1.437 -1.477,0 -2.815,-0.575 -3.805,-1.506 -1.003,1.366 -2.629,2.258 -4.471,2.258 -2.535,0 -4.666,-1.686 -5.312,-3.979 -0.976,0.86 -2.261,1.388 -3.674,1.388 -1.902,0 -3.579,-0.948 -4.571,-2.39 -1.007,1.057 -2.434,1.721 -4.021,1.721 -3.048,0 -5.518,-2.432 -5.518,-5.433 l 0.006,-0.124 c -0.678,0.293 -1.426,0.458 -2.213,0.458 -3.048,0 -5.518,-2.432 -5.518,-5.433 0,-0.761 0.16,-1.486 0.447,-2.143 -2.699,-0.355 -4.783,-2.625 -4.783,-5.38 0,-1.333 0.49,-2.552 1.299,-3.498 -1.226,-0.996 -2.008,-2.504 -2.008,-4.192 0,-3.001 2.47,-5.433 5.518,-5.433 1.241,0 2.383,0.408 3.305,1.09 6.78,-4.646 18.125,-7.694 30.984,-7.694 13.218,0 24.835,3.222 31.54,8.088 0.756,-0.385 1.613,-0.607 2.523,-0.607 3.038,0 5.501,2.425 5.501,5.417 0,1.348 -0.503,2.578 -1.33,3.526 1.197,0.993 1.959,2.479 1.959,4.141"
         style="fill:#ffffff;fill-opacity:1;fill-rule:nonzero;stroke:none;stroke-width:0.1"
         id="path356"
         inkscape:connector-curvature="0" /><path
         d="m 265.143,169.31 c 0.35,-2.287 2.488,-3.857 4.775,-3.507 2.287,0.351 3.857,2.488 3.507,4.775 -0.35,2.287 -2.488,3.858 -4.775,3.507 -2.287,-0.35 -3.857,-2.488 -3.507,-4.775"
         style="fill:#2e2d2d;fill-opacity:1;fill-rule:nonzero;stroke:none;stroke-width:0.1"
         id="path358"
         inkscape:connector-curvature="0" /><path
         d="m 238.605,169.309 c 0.35,-2.287 2.488,-3.858 4.775,-3.507 2.287,0.35 3.857,2.488 3.507,4.775 -0.351,2.287 -2.488,3.857 -4.775,3.507 -2.287,-0.351 -3.858,-2.488 -3.507,-4.775"
         style="fill:#2e2d2d;fill-opacity:1;fill-rule:nonzero;stroke:none;stroke-width:0.1"
         id="path360"
         inkscape:connector-curvature="0" /><path
         d="m 247.422,154.806 c 0.015,-3.005 3.265,-7.843 7.243,-7.823 3.978,0.02 7.178,4.89 7.163,7.895 -0.015,3.005 -3.252,5.425 -7.23,5.405 -3.978,-0.02 -7.191,-2.472 -7.176,-5.477"
         style="fill:#2e2d2d;fill-opacity:1;fill-rule:nonzero;stroke:none;stroke-width:0.1"
         id="path362"
         inkscape:connector-curvature="0" /><path
         d="m 265.257,134.939 c -2.453,-0.29 -5.279,1.273 -7.049,3.035 -1.341,1.335 -2.129,3.058 -2.598,4.876 l 0.031,5.679 -1.352,0.007 -0.031,-5.722 c -0.387,-1.795 -1.089,-3.5 -2.348,-4.834 -1.686,-1.788 -4.436,-3.392 -6.902,-3.139 -0.588,0.061 -0.561,-0.892 0.023,-0.952 2.724,-0.28 5.69,1.464 7.544,3.422 1.199,1.267 1.935,2.829 2.384,4.5 0.528,-1.684 1.343,-3.253 2.616,-4.516 1.947,-1.93 4.994,-3.629 7.704,-3.308 0.581,0.068 0.562,1.021 -0.022,0.952"
         style="fill:#2e2d2d;fill-opacity:1;fill-rule:nonzero;stroke:none;stroke-width:0.1"
         id="path364"
         inkscape:connector-curvature="0" /><path
         d="m 283.17,191.067 c 0,0 -2.287,15.972 -7.022,13.65 -4.736,-2.322 -23.108,-18.637 1.704,-19.452 l 5.318,5.802"
         style="fill:#71cfce;fill-opacity:1;fill-rule:nonzero;stroke:none;stroke-width:0.1"
         id="path366"
         inkscape:connector-curvature="0" /><path
         d="m 281.875,192.118 c 0,0 -0.87,12.325 -4.99,11.898 -4.596,-0.475 4.99,-11.898 4.99,-11.898"
         style="fill:#5fc8c2;fill-opacity:1;fill-rule:nonzero;stroke:none;stroke-width:0.1"
         id="path368"
         inkscape:connector-curvature="0" /><path
         d="m 282.192,191.097 c 0,0 15.433,4.704 15.339,-0.569 -0.094,-5.273 -7.074,-28.831 -18.337,-6.709 l 2.998,7.278"
         style="fill:#71cfce;fill-opacity:1;fill-rule:nonzero;stroke:none;stroke-width:0.1"
         id="path370"
         inkscape:connector-curvature="0" /><path
         d="m 283.692,190.37 c 0,0 11.53,4.441 12.892,0.529 1.519,-4.364 -12.892,-0.529 -12.892,-0.529"
         style="fill:#5fc8c2;fill-opacity:1;fill-rule:nonzero;stroke:none;stroke-width:0.1"
         id="path372"
         inkscape:connector-curvature="0" /><path
         d="m 284.006,185.796 c -1.334,-2.097 -4.044,-2.761 -6.054,-1.483 -2.01,1.278 -2.558,4.014 -1.225,6.111 1.334,2.097 4.044,2.761 6.054,1.483 2.01,-1.277 2.558,-4.014 1.225,-6.111"
         style="fill:#5fc8c2;fill-opacity:1;fill-rule:nonzero;stroke:none;stroke-width:0.1"
         id="path374"
         inkscape:connector-curvature="0" /></g><path
       inkscape:connector-curvature="0"
       id="path418"
       style="fill:#ffffff;fill-opacity:1;fill-rule:nonzero;stroke:none;stroke-width:0.1"
       d="m 244.118,23.9582 -0.001,0.0098 0.001,-0.0098" /><path
       inkscape:connector-curvature="0"
       id="path420"
       style="fill:#ffffff;fill-opacity:1;fill-rule:nonzero;stroke:none;stroke-width:0.1"
       d="m 244.197,23.4602 h 0.002 c -0.031,0.1418 -0.053,0.2828 -0.072,0.4207 0.019,-0.1387 0.041,-0.2809 0.07,-0.4207" /><path
       inkscape:connector-curvature="0"
       id="path422"
       style="fill:#ffffff;fill-opacity:1;fill-rule:nonzero;stroke:none;stroke-width:0.1"
       d="m 244.713,22.0129 -0.01,0.0203 0.01,-0.0203" /><path
       inkscape:connector-curvature="0"
       id="path424"
       style="fill:#ffffff;fill-opacity:1;fill-rule:nonzero;stroke:none;stroke-width:0.1"
       d="m 244.664,22.1102 -0.04,0.0789 0.04,-0.0789" /><path
       inkscape:connector-curvature="0"
       id="path426"
       style="fill:#ffffff;fill-opacity:1;fill-rule:nonzero;stroke:none;stroke-width:0.1"
       d="m 244.342,22.902 c 0.077,-0.2399 0.168,-0.4731 0.275,-0.6961 -0.108,0.2281 -0.198,0.4613 -0.273,0.6961 h -0.002" /><text
       xml:space="preserve"
       style="font-style:normal;font-variant:normal;font-weight:normal;font-stretch:normal;font-size:24px;line-height:1.25;font-family:'Noto Sans Symbols';-inkscape-font-specification:'Noto Sans Symbols';letter-spacing:0px;word-spacing:0px;fill:#000000;fill-opacity:0;stroke:none;stroke-width:0.75"
       x="249.94073"
       y="-437.97165"
       id="text450"
       transform="scale(1,-1)"><tspan
         sodipodi:role="line"
         id="tspan448"
         x="249.94073"
         y="-417.64481"
         style="font-style:normal;font-variant:normal;font-weight:normal;font-stretch:normal;font-size:64.99999762%;font-family:'Noto Sans Symbols';-inkscape-font-specification:'Noto Sans Symbols';text-align:center;baseline-shift:sub;text-anchor:middle;opacity:0;fill:#000000;fill-opacity:0;stroke:#000000;stroke-width:0.75;stroke-opacity:1" /></text>
<text
       xml:space="preserve"
       style="font-style:normal;font-variant:normal;font-weight:normal;font-stretch:normal;font-size:30px;line-height:1.25;font-family:'Noto Sans Mono CJK HK';-inkscape-font-specification:'Noto Sans Mono CJK HK';letter-spacing:0px;word-spacing:0px;fill:#000000;fill-opacity:1;stroke:none;stroke-width:0.75"
       x="199.72937"
       y="-445.08978"
       id="text1275"
       transform="scale(1,-1)"><tspan
         sodipodi:role="line"
         id="tspan1273"
         x="199.72937"
         y="-414.93979"
         style="stroke-width:0.75"></tspan></text>
<text
       xml:space="preserve"
       style="font-style:normal;font-variant:normal;font-weight:normal;font-stretch:normal;font-size:30px;line-height:1.25;font-family:'Noto Sans Mono CJK HK';-inkscape-font-specification:'Noto Sans Mono CJK HK';letter-spacing:0px;word-spacing:0px;fill:#000000;fill-opacity:1;stroke:none;stroke-width:0.75"
       x="183.27226"
       y="-458.55469"
       id="text1279"
       transform="scale(1,-1)"><tspan
         sodipodi:role="line"
         id="tspan1277"
         x="183.27226"
         y="-428.40469"
         style="stroke-width:0.75" /><tspan
         sodipodi:role="line"
         x="183.27226"
         y="-390.90469"
         style="stroke-width:0.75"
         id="tspan1281" /></text>
<flowRoot
       xml:space="preserve"
       id="flowRoot1287"
       style="fill:black;fill-opacity:1;stroke:none;font-family:'Noto Sans Mono CJK HK';font-style:normal;font-weight:normal;font-size:24px;line-height:1.25;letter-spacing:0px;word-spacing:0px;-inkscape-font-specification:'Noto Sans Mono CJK HK';font-stretch:normal;font-variant:normal"><flowRegion
         id="flowRegion1289"><rect
           id="rect1291"
           width="14.462301"
           height="27.428501"
           x="234.38901"
           y="68.829384" /></flowRegion><flowPara
         id="flowPara1293"></flowPara></flowRoot></g></svg>